<?xml version="1.0" standalone="no"?>
<!DOCTYPE svg PUBLIC "-//W3C//DTD SVG 20010904//EN"
 "http://www.w3.org/TR/2001/REC-SVG-20010904/DTD/svg10.dtd">
<svg version="1.0" xmlns="http://www.w3.org/2000/svg"
 width="2000.000000pt" height="980.000000pt" viewBox="0 0 2000.000000 980.000000"
 preserveAspectRatio="xMidYMid meet">

<g transform="translate(0.000000,980.000000) scale(0.100000,-0.100000)"
fill="#000000" stroke="none">
<path d="M8803 7560 c-69 -14 -115 -41 -173 -100 -75 -76 -94 -130 -88 -253 4
-86 28 -167 49 -167 4 0 9 -8 11 -18 8 -28 86 -88 146 -111 72 -28 181 -28
257 0 68 25 147 99 178 166 18 39 22 66 22 148 0 89 -3 106 -28 157 -65 132
-226 208 -374 178z m220 -79 c46 -28 93 -82 112 -128 18 -42 20 -189 4 -248
-7 -26 -30 -58 -69 -95 -50 -50 -65 -58 -116 -68 -102 -20 -222 9 -284 69 -53
52 -71 95 -77 190 -11 153 59 269 180 300 17 4 73 7 123 5 73 -2 99 -8 127
-25z"/>
<path d="M10775 7561 c-94 -24 -148 -88 -148 -174 0 -61 21 -107 62 -137 17
-11 79 -33 138 -47 90 -22 114 -32 141 -59 25 -25 32 -40 32 -70 0 -83 -61
-134 -160 -134 -74 0 -114 20 -136 69 -16 35 -23 41 -50 41 -31 0 -32 -1 -24
-36 17 -77 100 -124 214 -124 104 1 182 53 206 138 14 51 12 71 -9 118 -25 56
-65 77 -206 112 -141 36 -155 47 -155 129 0 69 12 90 63 114 89 40 187 17 215
-51 15 -35 21 -40 51 -40 31 0 33 2 26 28 -10 40 -49 87 -87 105 -40 19 -132
28 -173 18z"/>
<path d="M9557 7550 c-128 -33 -220 -130 -247 -262 -51 -255 215 -470 452
-364 120 54 186 146 195 274 7 106 -12 170 -74 243 -79 93 -213 137 -326 109z
m168 -41 c65 -18 128 -71 158 -133 24 -48 27 -67 27 -151 0 -114 -12 -148 -80
-216 -54 -54 -118 -79 -200 -79 -112 0 -193 47 -245 141 -26 49 -29 63 -29
149 -1 85 2 101 28 154 31 63 87 112 154 133 48 15 136 16 187 2z"/>
<path d="M10090 7225 l0 -335 30 0 29 0 3 143 3 142 120 5 c138 6 170 18 212
81 74 112 16 259 -114 290 -21 5 -93 9 -160 9 l-123 0 0 -335z m278 283 c65
-16 92 -54 92 -133 0 -77 -11 -103 -54 -133 -29 -20 -45 -22 -144 -22 l-112 0
0 150 0 151 88 -2 c48 -1 106 -6 130 -11z"/>
<path d="M16193 7183 c-18 -44 -14 -143 8 -189 37 -76 85 -9 77 108 -8 110
-54 154 -85 81z"/>
<path d="M11494 6972 c-22 -15 -24 -42 -4 -62 24 -24 34 -25 54 -4 38 38 -6
97 -50 66z"/>
<path d="M11700 6965 c-15 -18 -6 -61 16 -69 37 -14 65 25 48 68 -8 20 -48 21
-64 1z"/>
<path d="M11912 6968 c-17 -17 -15 -42 6 -61 24 -22 35 -21 55 1 21 23 21 36
1 56 -18 19 -45 21 -62 4z"/>
<path d="M5238 6903 c-29 -33 -59 -104 -68 -159 -17 -105 25 -138 80 -63 46
65 75 193 50 224 -17 20 -43 19 -62 -2z"/>
<path d="M15836 6718 c-11 -15 -16 -45 -16 -89 0 -76 14 -125 41 -139 32 -17
54 31 53 115 -1 109 -41 167 -78 113z"/>
<path d="M16589 6723 c-22 -26 -19 -181 4 -216 15 -23 21 -26 37 -17 25 14 35
50 34 125 -1 63 -25 125 -48 125 -7 0 -20 -7 -27 -17z"/>
<path d="M4784 6610 c-48 -19 -97 -122 -98 -205 -1 -53 1 -60 20 -63 51 -7
118 108 118 207 1 67 -5 75 -40 61z"/>
<path d="M5366 6440 c-27 -33 -66 -144 -66 -189 0 -15 6 -36 14 -46 34 -46
101 38 125 156 21 100 -19 143 -73 79z"/>
<path d="M16150 6245 c-60 -15 -165 -63 -157 -71 3 -3 14 -1 25 5 86 46 336
65 457 36 75 -18 89 -18 49 -1 -98 43 -268 57 -374 31z"/>
<path d="M16643 6193 c-22 -21 -49 -81 -39 -90 3 -3 6 0 6 9 0 8 14 34 30 56
33 46 34 51 3 25z"/>
<path d="M15902 6153 c9 -10 23 -31 31 -48 15 -27 16 -28 17 -7 0 12 -5 22
-12 22 -6 0 -8 3 -5 6 4 4 -3 15 -15 25 -27 24 -36 24 -16 2z"/>
<path d="M16227 6120 c-61 -12 -50 -15 48 -15 90 0 99 6 25 17 -19 3 -52 2
-73 -2z"/>
<path d="M4752 6069 c-66 -11 -102 -30 -136 -69 -47 -57 -29 -165 31 -188 15
-6 64 -13 108 -16 44 -3 90 -8 103 -12 14 -4 22 -2 22 6 0 19 40 50 66 50 41
0 65 -37 85 -131 9 -43 13 -47 45 -52 84 -14 148 38 148 120 -1 174 -250 328
-472 292z"/>
<path d="M9809 5800 c-42 -4 -91 -12 -110 -18 -19 -6 -54 -13 -79 -16 -53 -6
-120 -24 -120 -33 0 -3 6 -3 13 0 6 2 21 1 32 -4 13 -5 3 -7 -27 -4 -37 4 -65
-3 -145 -34 -54 -22 -98 -45 -98 -52 0 -7 -7 -14 -15 -16 -13 -4 -13 -3 0 6 8
6 11 11 7 11 -13 0 -122 -62 -125 -71 -2 -5 -9 -9 -15 -9 -7 0 -32 -18 -57
-40 -24 -22 -49 -40 -55 -40 -5 0 -3 -5 5 -10 16 -10 24 -56 11 -65 -5 -2 -7
9 -5 25 3 24 0 30 -14 30 -19 0 -70 -47 -63 -58 2 -4 -6 -12 -18 -18 -25 -13
-73 -56 -68 -61 2 -2 -14 -22 -35 -45 -21 -23 -36 -48 -33 -56 2 -7 1 -11 -4
-7 -9 5 -40 -32 -54 -65 -4 -8 -16 -30 -27 -48 -11 -18 -15 -30 -9 -26 8 5 9
3 4 -6 -4 -7 -2 -16 5 -20 11 -7 10 -12 -3 -24 -9 -9 -15 -22 -13 -29 1 -7 1
-8 -2 -3 -3 5 -10 -4 -18 -20 -7 -16 -13 -22 -13 -14 -1 9 6 26 15 38 8 12 12
27 8 34 -4 7 -3 8 4 4 7 -4 12 -3 12 3 0 24 -20 19 -26 -6 -4 -15 -16 -43 -26
-61 -11 -18 -18 -36 -14 -39 3 -4 6 0 6 7 0 7 3 11 6 7 3 -3 -3 -19 -15 -35
-11 -16 -25 -48 -31 -70 -5 -23 -15 -61 -20 -83 -6 -23 -8 -51 -5 -63 5 -15 4
-17 -3 -7 -10 14 -17 -20 -27 -141 -2 -32 -7 -70 -11 -85 -4 -23 -3 -25 6 -13
10 13 11 13 6 -2 -7 -24 -9 -657 -2 -688 3 -14 8 -61 10 -105 3 -44 5 -86 5
-93 1 -7 6 -10 12 -7 6 4 10 1 8 -6 -5 -39 2 -90 11 -84 7 4 9 -2 4 -19 -4
-16 -2 -26 5 -26 6 0 11 11 11 23 0 14 6 24 15 24 8 0 15 -6 15 -14 0 -7 -5
-13 -11 -13 -10 0 -7 -46 7 -125 5 -30 24 -70 101 -218 10 -19 20 -26 30 -22
13 4 14 3 3 -10 -11 -14 -7 -19 13 -16 7 1 8 -4 11 -39 1 -8 8 -14 15 -12 7 1
10 -1 7 -6 -2 -4 9 -23 26 -42 17 -19 40 -46 52 -60 11 -14 32 -31 46 -38 14
-7 17 -10 7 -7 -10 2 6 -17 35 -44 43 -39 59 -48 82 -45 26 3 27 2 11 -9 -16
-12 -15 -14 8 -30 14 -9 33 -14 41 -11 9 3 17 -2 21 -15 3 -11 26 -31 51 -45
24 -14 41 -20 38 -14 -4 6 -1 9 7 6 8 -3 13 -11 11 -18 -2 -8 3 -10 13 -6 9 3
13 2 10 -4 -9 -15 37 -29 63 -19 17 6 21 6 16 -2 -5 -9 4 -10 32 -6 33 6 35 5
14 -4 -13 -5 -36 -8 -50 -5 l-25 5 25 -11 c14 -6 38 -17 55 -24 20 -9 32 -9
36 -2 4 6 10 4 16 -7 6 -11 23 -18 42 -19 17 0 31 -4 31 -7 0 -9 72 -28 126
-33 17 -2 35 -6 41 -9 5 -3 44 -7 87 -8 42 -2 79 -6 82 -10 6 -11 155 -10 168
0 7 6 27 9 46 9 40 -2 150 9 187 18 18 5 21 9 11 15 -7 5 3 6 25 2 21 -3 37
-2 37 4 0 6 13 10 30 11 28 1 120 36 120 46 0 3 -14 0 -31 -6 -16 -6 -32 -8
-35 -5 -3 3 8 8 25 12 17 4 31 12 31 18 0 6 6 3 13 -7 11 -15 18 -17 33 -8 18
10 18 11 -6 20 -14 5 -31 11 -39 14 -8 2 9 4 37 5 29 0 49 -3 47 -8 -3 -4 -13
-6 -23 -3 -16 5 -16 5 0 -5 13 -9 26 -7 55 6 21 10 40 21 41 26 2 4 9 7 15 7
16 0 137 81 137 92 0 5 5 6 11 2 8 -4 9 1 5 17 -3 13 -3 18 0 12 9 -20 28 -15
60 15 16 16 46 41 66 56 21 16 36 31 33 35 -2 4 14 24 35 44 22 20 40 41 40
47 0 6 4 9 8 6 4 -2 19 12 32 32 14 20 27 39 30 42 20 18 46 67 42 80 -3 8 -1
12 3 8 11 -11 38 29 29 44 -4 6 -3 8 4 4 13 -8 24 25 16 50 -4 14 -3 16 4 5 8
-11 12 -9 22 9 8 15 8 20 1 16 -17 -11 -13 40 4 54 10 9 15 9 15 1 0 -6 -4
-11 -10 -11 -5 0 -10 -7 -10 -16 0 -23 17 -8 29 26 6 18 6 28 1 25 -17 -11
-11 14 9 32 19 18 40 70 25 60 -5 -3 -9 8 -9 24 0 27 1 28 14 12 12 -16 13
-15 7 10 -5 22 -4 27 6 21 7 -4 10 -4 6 1 -4 4 -3 16 3 27 6 10 13 49 16 86 3
37 10 72 15 79 5 6 9 201 9 453 0 385 -2 445 -16 460 -18 19 -20 34 -4 24 9
-5 10 1 5 22 -4 16 -8 39 -11 51 -2 13 -6 41 -10 63 -4 22 -12 38 -18 37 -8
-1 -11 9 -9 28 3 37 -17 115 -30 115 -5 0 -6 5 -3 10 3 6 1 10 -4 10 -6 0 -11
-4 -11 -10 0 -5 -5 -10 -12 -10 -6 0 -4 8 6 19 16 17 16 22 3 43 -8 12 -17 34
-21 48 -8 35 -81 151 -90 143 -4 -4 -5 -1 -2 7 4 9 -7 29 -24 47 -16 18 -30
36 -30 41 0 5 -7 15 -15 22 -20 17 -19 8 5 -46 12 -26 27 -44 37 -44 13 0 14
-3 5 -12 -9 -9 -15 -8 -24 4 -7 8 -22 20 -33 26 l-20 11 20 1 c16 0 17 2 6 9
-8 5 -15 25 -15 44 -2 35 -59 116 -70 98 -3 -5 1 -12 10 -15 9 -4 14 -13 10
-22 -3 -8 -2 -13 2 -10 4 2 14 1 22 -5 12 -7 11 -9 -5 -9 -11 0 -27 5 -35 10
-12 8 -12 10 -1 10 11 0 11 4 -2 18 -10 10 -14 21 -11 25 3 3 1 14 -5 24 -6
10 -11 12 -11 6 0 -7 -8 -13 -17 -13 -14 0 -15 2 -4 9 7 5 10 14 6 21 -6 9 -9
9 -15 -1 -12 -19 -38 -20 -35 0 1 9 8 15 15 13 6 -1 10 3 7 10 -2 7 -10 12
-16 11 -6 -2 -10 3 -8 10 1 7 -6 11 -17 9 -10 -2 -15 1 -12 7 7 11 -25 38 -80
66 -21 11 -45 27 -52 35 -10 13 -11 12 -7 -5 5 -16 3 -16 -6 3 -7 12 -18 22
-26 22 -7 0 -13 5 -13 11 0 5 -5 7 -11 4 -6 -5 -4 -12 8 -21 16 -12 16 -15 3
-24 -24 -16 -36 -11 -14 6 15 12 16 15 2 10 -13 -4 -16 0 -12 17 3 19 -7 27
-66 55 -38 17 -75 32 -82 31 -7 0 -4 -5 7 -10 l20 -9 -20 3 c-11 1 -20 8 -20
16 0 8 -19 19 -42 26 -24 7 -40 9 -37 4 9 -15 -13 -10 -26 5 -14 18 -153 49
-209 47 -13 -1 -29 3 -36 9 -15 12 -228 19 -326 10z m301 -20 c13 -8 13 -10
-2 -10 -9 0 -20 5 -23 10 -8 13 5 13 25 0z m-353 -6 c-3 -3 -12 -4 -19 -1 -8
3 -5 6 6 6 11 1 17 -2 13 -5z m-84 -21 c-7 -2 -21 -2 -30 0 -10 3 -4 5 12 5
17 0 24 -2 18 -5z m57 -9 c0 -2 -9 -4 -21 -4 -11 0 -18 4 -14 10 5 8 35 3 35
-6z m443 9 c-7 -2 -19 -2 -25 0 -7 3 -2 5 12 5 14 0 19 -2 13 -5z m-569 -14
c-4 -8 6 -9 37 -5 38 5 40 4 14 -4 -16 -6 -43 -7 -60 -4 -27 6 -28 8 -10 15
27 10 27 10 19 -2z m156 1 c0 -5 -2 -10 -4 -10 -3 0 -8 5 -11 10 -3 6 -1 10 4
10 6 0 11 -4 11 -10z m340 6 c0 -3 -4 -8 -10 -11 -5 -3 -10 -1 -10 4 0 6 5 11
10 11 6 0 10 -2 10 -4z m255 -14 c-3 -3 -11 0 -18 7 -9 10 -8 11 6 5 10 -3 15
-9 12 -12z m-215 -2 c0 -5 -4 -10 -10 -10 -5 0 -10 5 -10 10 0 6 5 10 10 10 6
0 10 -4 10 -10z m100 6 c0 -2 -9 -6 -20 -9 -11 -3 -18 -1 -14 4 5 9 34 13 34
5z m-523 -12 c-3 -3 -12 -4 -19 -1 -8 3 -5 6 6 6 11 1 17 -2 13 -5z m570 0
c-3 -3 -12 -4 -19 -1 -8 3 -5 6 6 6 11 1 17 -2 13 -5z m-857 -29 c-7 -8 -17
-15 -23 -15 -6 0 -2 7 9 15 25 19 30 19 14 0z m-14 -25 c19 0 22 -3 13 -12
-13 -15 -81 -19 -72 -5 3 5 -5 6 -18 3 -24 -7 -24 -7 1 8 14 9 31 13 38 11 8
-3 25 -5 38 -5z m1172 -15 c3 -3 -12 -3 -34 0 -30 5 -36 3 -24 -6 13 -9 12
-10 -3 -5 -10 3 -24 6 -30 7 -7 0 -3 4 8 9 21 9 72 6 83 -5z m-1330 -53 c8 -6
0 -12 -25 -20 -20 -6 -39 -9 -42 -7 -2 3 1 5 8 5 7 0 9 5 5 11 -4 8 1 9 16 4
15 -5 20 -4 16 4 -8 13 3 14 22 3z m-83 -32 c3 -5 1 -10 -4 -10 -6 0 -11 5
-11 10 0 6 2 10 4 10 3 0 8 -4 11 -10z m72 -6 c-3 -3 -12 -4 -19 -1 -8 3 -5 6
6 6 11 1 17 -2 13 -5z m1540 -34 c6 0 16 -7 23 -15 7 -8 17 -12 24 -8 6 3 7 2
3 -3 -5 -5 -12 -9 -15 -9 -4 0 -13 -4 -21 -9 -9 -6 -12 -5 -9 5 3 8 -5 18 -16
24 -11 6 -22 19 -24 30 -3 19 -2 19 11 3 8 -10 19 -18 24 -18z m-1675 -12 c-9
-9 -9 -15 1 -27 10 -14 10 -14 -5 -3 -12 10 -17 10 -20 1 -2 -7 -10 -9 -17 -5
-9 6 -5 13 16 26 33 22 41 24 25 8z m1648 -13 c20 -25 4 -29 -21 -6 -18 16
-19 21 -7 21 9 0 21 -7 28 -15z m-1750 -65 c0 -5 -4 -10 -10 -10 -5 0 -10 5
-10 10 0 6 5 10 10 10 6 0 10 -4 10 -10z m-15 -39 c-6 -5 -25 10 -25 20 0 5 6
4 14 -3 8 -7 12 -15 11 -17z m-61 -56 c-7 -17 11 -21 19 -5 3 6 4 5 3 -2 -1
-7 -17 -13 -34 -14 -34 -2 -50 10 -31 22 8 4 9 3 5 -4 -11 -17 9 -15 24 3 7 8
14 15 16 15 2 0 1 -7 -2 -15z m-64 -81 c7 -17 3 -20 -26 -21 -33 -1 -33 -1
-16 23 20 27 32 26 42 -2z m1274 -43 c9 -7 23 -11 31 -7 8 3 15 1 15 -3 0 -5
10 -7 22 -3 13 3 19 1 15 -5 -7 -12 37 -28 65 -24 9 1 20 -3 24 -10 5 -8 3
-10 -7 -4 -8 5 -11 4 -6 -1 5 -5 12 -9 15 -10 18 -2 68 -27 75 -37 5 -7 6 -2
2 13 -5 21 -4 22 5 8 6 -10 20 -18 30 -18 11 0 20 -4 20 -9 0 -5 -10 -7 -22
-4 -27 7 -30 10 53 -59 51 -43 71 -55 95 -53 16 2 24 1 17 -2 -7 -2 -9 -12 -6
-21 6 -15 3 -14 -15 2 -28 25 -29 13 0 -16 20 -20 22 -20 34 -3 8 10 17 15 21
11 4 -4 0 -12 -10 -17 -23 -13 -22 -35 3 -52 11 -8 17 -17 13 -20 -3 -4 1 -7
10 -7 9 0 21 -10 28 -21 8 -15 8 -19 0 -15 -13 8 -15 -6 -2 -20 5 -5 14 -26
21 -48 9 -29 15 -35 22 -25 8 11 8 10 4 -4 -3 -10 0 -28 6 -40 7 -12 11 -25
10 -29 -1 -4 5 -34 14 -65 21 -77 22 -86 24 -473 2 -198 6 -323 11 -305 l8 30
-4 -30 c-9 -75 -27 -172 -35 -190 -22 -47 -40 -116 -34 -127 4 -7 3 -8 -4 -4
-7 4 -16 -9 -24 -35 -6 -23 -23 -53 -36 -66 -15 -15 -21 -30 -17 -41 3 -9 3
-13 -1 -10 -4 4 -15 -3 -25 -17 -15 -19 -17 -29 -9 -50 15 -40 13 -46 -19 -43
-16 1 -27 6 -24 10 2 5 13 6 24 3 11 -4 19 -2 19 4 0 6 -4 11 -10 11 -5 0 -7
8 -4 18 3 9 -14 -4 -38 -30 -63 -68 -187 -162 -221 -167 -4 0 -22 -8 -40 -17
-17 -10 -43 -20 -57 -25 -25 -7 -25 -7 -2 -8 13 -1 20 -5 17 -11 -3 -5 2 -10
11 -10 10 0 14 -3 11 -6 -3 -4 -21 0 -39 9 -20 9 -45 13 -63 10 -26 -6 -27 -7
-10 -14 12 -5 5 -6 -19 -2 -23 3 -37 2 -33 -3 8 -13 -253 -17 -286 -5 -19 8
-27 7 -27 0 0 -7 -11 -4 -26 6 -27 17 -68 21 -119 11 l-30 -6 29 11 30 12 -53
23 c-29 13 -57 21 -62 18 -5 -3 -9 -1 -9 5 0 14 -88 73 -99 66 -5 -3 -12 -1
-16 4 -3 6 -19 8 -36 6 -17 -2 -28 -1 -24 3 3 4 14 7 22 7 30 0 23 21 -17 50
-22 17 -40 34 -40 38 0 5 -14 26 -32 48 -32 40 -66 54 -53 22 5 -15 4 -16 -7
-4 -11 11 -10 15 4 24 15 10 12 18 -22 86 -21 42 -42 88 -45 104 -9 33 -22 35
-35 5 -5 -14 -9 -17 -9 -8 -1 9 6 25 14 37 9 13 11 24 6 28 -11 6 -20 -6 -31
-43 -7 -23 -8 -23 -9 -6 -1 12 9 34 21 50 13 15 17 24 9 20 -10 -7 -11 -3 -6
14 4 12 3 20 -1 17 -5 -3 -9 23 -10 56 -7 513 -8 783 -2 769 4 -11 7 -4 7 19
1 20 4 52 7 70 4 26 3 30 -5 19 -10 -13 -11 -13 -11 0 0 8 5 22 10 30 9 13 10
13 11 0 1 -18 17 18 18 40 1 13 0 13 -10 0 -13 -19 -1 68 13 90 6 10 7 2 3
-25 -5 -41 9 -31 17 10 1 11 6 22 10 25 4 4 10 22 14 40 4 27 3 31 -5 20 -7
-10 -11 -11 -11 -3 0 7 9 17 20 23 17 9 19 8 14 -7 -4 -10 11 9 32 42 21 33
42 62 46 63 5 2 5 8 2 13 -3 6 -19 -10 -35 -35 -16 -26 -31 -46 -34 -46 -8 0
15 41 32 58 8 8 11 23 8 36 -4 11 -3 17 2 11 12 -15 39 -12 60 7 13 12 19 29
17 56 -1 38 3 41 45 33 3 -1 -6 -12 -19 -26 -13 -14 -19 -25 -13 -25 6 0 16 7
24 16 7 9 32 29 56 45 24 17 41 35 37 40 -3 6 0 9 7 8 22 -4 60 11 54 22 -3 5
0 6 8 3 8 -3 20 2 27 10 7 9 16 13 21 10 5 -3 9 0 9 5 0 6 -5 11 -12 11 -6 0
-8 3 -5 6 4 4 13 2 20 -5 15 -12 50 -5 42 9 -2 4 7 5 22 2 19 -4 24 -2 18 7
-5 9 -1 12 11 11 11 -1 35 -1 54 0 28 1 31 3 15 9 -11 5 62 8 161 7 134 -1
186 -5 198 -15z m46 15 c0 -2 -7 -7 -16 -10 -8 -3 -12 -2 -9 4 6 10 25 14 25
6z m75 -6 c-3 -5 9 -13 27 -18 l33 -8 -34 -7 c-23 -5 -39 -3 -50 7 -9 7 -23
16 -31 20 -8 3 -5 4 8 2 12 -2 22 0 22 5 0 5 7 9 16 9 8 0 13 -4 9 -10z m-620
-10 c-3 -5 -14 -10 -23 -9 -14 0 -13 2 3 9 27 11 27 11 20 0z m-861 -31 c-3
-6 0 -16 7 -21 11 -8 10 -9 -4 -4 -14 4 -21 -2 -29 -24 -5 -17 -13 -30 -18
-30 -4 0 2 20 13 45 12 25 25 45 30 45 4 0 5 -5 1 -11z m2281 -10 c11 -17 -1
-21 -15 -4 -8 9 -8 15 -2 15 6 0 14 -5 17 -11z m-1544 -42 c-10 -9 -11 -8 -5
6 3 10 9 15 12 12 3 -3 0 -11 -7 -18z m919 13 c12 -8 11 -10 -7 -10 -13 0 -23
5 -23 10 0 13 11 13 30 0z m-940 -4 c0 -2 -7 -7 -16 -10 -8 -3 -12 -2 -9 4 6
10 25 14 25 6z m-707 -33 c-7 -2 -11 -10 -9 -16 1 -7 1 -9 -1 -4 -3 4 -9 5
-14 1 -5 -3 -9 0 -9 5 0 6 5 11 10 11 6 0 10 8 10 17 0 14 2 15 13 4 9 -10 9
-15 0 -18z m687 -2 c0 -3 -10 -12 -22 -20 -21 -13 -22 -13 -9 2 9 12 10 17 2
17 -7 0 -10 4 -6 10 6 10 35 3 35 -9z m1664 -21 c-5 -5 -10 3 -11 18 -1 22 0
24 9 8 6 -10 6 -22 2 -26z m-667 8 c-3 -8 -6 -5 -6 6 -1 11 2 17 5 13 3 -3 4
-12 1 -19z m-1730 -14 c-3 -3 -12 -4 -19 -1 -8 3 -5 6 6 6 11 1 17 -2 13 -5z
m1751 -20 c12 -8 27 -12 32 -9 6 3 10 2 10 -4 0 -20 -16 -18 -50 5 -19 13 -30
24 -24 24 5 0 20 -7 32 -16z m54 -46 c-7 -7 -12 -8 -12 -2 0 14 12 26 19 19 2
-3 -1 -11 -7 -17z m661 7 c-3 -9 -8 -14 -10 -11 -3 3 -2 9 2 15 9 16 15 13 8
-4z m-1874 -32 c14 11 14 10 2 -6 -10 -13 -17 -15 -27 -6 -8 6 -14 14 -14 17
0 3 5 1 12 -6 9 -9 15 -9 27 1z m-619 -38 c0 -19 -4 -35 -8 -35 -4 0 -6 16 -4
35 2 19 6 35 8 35 2 0 4 -16 4 -35z m2499 -1 c1 11 4 17 7 13 3 -3 3 -15 -1
-28 -6 -17 -9 -19 -16 -8 -5 8 -8 21 -8 29 0 10 3 8 9 -5 8 -19 9 -19 9 -1z
m-2529 -19 c-7 -8 -17 -15 -23 -15 -6 0 -2 7 9 15 25 19 30 19 14 0z m1945
-14 c3 -5 1 -12 -5 -16 -5 -3 -10 1 -10 9 0 18 6 21 15 7z m-1405 -36 c0 -5
-5 -3 -10 5 -5 8 -10 20 -10 25 0 6 5 3 10 -5 5 -8 10 -19 10 -25z m-603 -27
c-3 -8 -6 -5 -6 6 -1 11 2 17 5 13 3 -3 4 -12 1 -19z m593 1 c0 -5 -4 -9 -10
-9 -5 0 -10 7 -10 16 0 8 5 12 10 9 6 -3 10 -10 10 -16z m1500 -30 c0 -6 -8
-18 -17 -27 -16 -16 -16 -16 -10 1 4 10 7 23 7 28 0 5 5 9 10 9 6 0 10 -5 10
-11z m-2113 -51 c-3 -7 -5 -2 -5 12 0 14 2 19 5 13 2 -7 2 -19 0 -25z m2105
-10 c-7 -7 -12 -8 -12 -2 0 14 12 26 19 19 2 -3 -1 -11 -7 -17z m586 -23 c-3
-3 -9 2 -12 12 -6 14 -5 15 5 6 7 -7 10 -15 7 -18z m-2701 -7 c-3 -8 -6 -5 -6
6 -1 11 2 17 5 13 3 -3 4 -12 1 -19z m27 -20 c-3 -4 0 -9 6 -13 5 -3 10 -11
10 -18 0 -6 -7 -2 -15 9 -8 10 -14 30 -14 44 0 23 1 23 8 5 5 -11 7 -23 5 -27z
m520 -18 c10 -13 9 -13 -6 -1 -10 7 -18 21 -17 30 0 13 1 14 6 1 3 -8 11 -22
17 -30z m2173 8 c-3 -8 -6 -5 -6 6 -1 11 2 17 5 13 3 -3 4 -12 1 -19z m-2180
-50 c-3 -8 -6 -5 -6 6 -1 11 2 17 5 13 3 -3 4 -12 1 -19z m2188 -39 c-4 -11
-11 -19 -18 -19 -8 0 -8 3 1 12 14 14 16 42 2 33 -12 -7 -12 -3 -3 21 6 15 7
14 15 -6 5 -13 6 -31 3 -41z m-38 29 c-3 -8 -6 -5 -6 6 -1 11 2 17 5 13 3 -3
4 -12 1 -19z m-530 -10 c-3 -8 -6 -5 -6 6 -1 11 2 17 5 13 3 -3 4 -12 1 -19z
m17 -22 c-3 -21 -8 -35 -11 -32 -2 2 -1 20 3 40 3 21 8 35 11 32 2 -2 1 -20
-3 -40z m23 -108 c-3 -7 -5 -2 -5 12 0 14 2 19 5 13 2 -7 2 -19 0 -25z m0
-140 c-3 -7 -5 -2 -5 12 0 14 2 19 5 13 2 -7 2 -19 0 -25z m0 -470 c-2 -13 -4
-3 -4 22 0 25 2 35 4 23 2 -13 2 -33 0 -45z m0 -170 c-3 -8 -6 -5 -6 6 -1 11
2 17 5 13 3 -3 4 -12 1 -19z m513 -18 c0 -5 -4 -10 -10 -10 -5 0 -10 5 -10 10
0 6 5 10 10 10 6 0 10 -4 10 -10z m37 -15 c-4 -8 -11 -15 -17 -15 -6 0 -6 7 2
20 14 22 24 19 15 -5z m-550 -7 c-3 -8 -6 -5 -6 6 -1 11 2 17 5 13 3 -3 4 -12
1 -19z m532 -77 c-2 -25 -2 -25 -6 2 -4 23 -8 27 -26 23 -12 -3 -16 -3 -9 0 6
3 12 13 12 22 1 15 3 14 15 -2 8 -11 14 -31 14 -45z m-536 36 c3 -7 -1 -24 -8
-36 l-12 -24 -5 25 c-7 40 12 68 25 35z m517 -112 c-7 -37 -7 -35 -7 19 0 34
4 51 8 40 3 -11 3 -37 -1 -59z m-513 43 c-3 -8 -6 -5 -6 6 -1 11 2 17 5 13 3
-3 4 -12 1 -19z m-2190 -40 c-3 -8 -6 -5 -6 6 -1 11 2 17 5 13 3 -3 4 -12 1
-19z m572 -20 c1 -5 -3 -8 -9 -8 -5 0 -10 12 -9 28 0 24 1 25 9 7 5 -11 9 -23
9 -27z m2108 -20 c-2 -13 -4 -3 -4 22 0 25 2 35 4 23 2 -13 2 -33 0 -45z
m-2690 -10 c-3 -7 -5 -2 -5 12 0 14 2 19 5 13 2 -7 2 -19 0 -25z m20 0 c-3 -7
-5 -2 -5 12 0 14 2 19 5 13 2 -7 2 -19 0 -25z m578 2 c3 -5 1 -10 -4 -10 -6 0
-11 5 -11 10 0 6 2 10 4 10 3 0 8 -4 11 -10z m35 -72 c21 -35 26 -53 11 -43
-12 7 -24 -31 -15 -47 5 -10 4 -10 -6 -1 -10 10 -10 18 0 42 10 26 10 35 -4
56 -9 14 -14 25 -11 25 3 0 14 -15 25 -32z m2025 -28 c-3 -5 -10 -10 -16 -10
-5 0 -9 5 -9 10 0 6 7 10 16 10 8 0 12 -4 9 -10z m-1965 -71 c0 -6 -4 -7 -10
-4 -5 3 -10 11 -10 16 0 6 5 7 10 4 6 -3 10 -11 10 -16z m1344 12 c3 -5 -1
-11 -9 -14 -9 -4 -12 -1 -8 9 6 16 10 17 17 5z m-1935 -48 c0 -21 -4 -47 -9
-58 -5 -13 -7 -1 -6 37 0 32 4 58 9 58 4 0 7 -17 6 -37z m2525 22 c-4 -8 -11
-15 -16 -15 -6 0 -5 6 2 15 7 8 14 15 16 15 2 0 1 -7 -2 -15z m-2557 -17 c-3
-8 -6 -5 -6 6 -1 11 2 17 5 13 3 -3 4 -12 1 -19z m1966 7 c-3 -9 -8 -14 -10
-11 -3 3 -2 9 2 15 9 16 15 13 8 -4z m-1334 -31 c-13 -16 -12 -17 10 -11 17 4
21 3 13 -5 -6 -6 -18 -8 -27 -4 -12 4 -14 10 -6 25 6 10 9 21 7 23 -1 3 2 2 7
-3 7 -5 5 -14 -4 -25z m-579 -79 c0 -5 -5 -3 -10 5 -5 8 -10 20 -10 25 0 6 5
3 10 -5 5 -8 10 -19 10 -25z m665 7 c-3 -3 -11 0 -18 7 -9 10 -8 11 6 5 10 -3
15 -9 12 -12z m1115 -12 c-19 -16 -41 -29 -49 -30 -8 0 6 13 30 30 56 38 63
38 19 0z m45 0 c-10 -11 -22 -20 -27 -20 -5 0 2 11 14 24 28 28 39 25 13 -4z
m-1807 -32 c10 -10 15 -10 23 2 8 11 9 9 4 -9 -6 -19 -4 -23 9 -18 12 5 16 1
16 -15 0 -12 -3 -18 -7 -15 -3 4 -12 2 -20 -4 -10 -9 -13 -6 -13 14 0 14 -9
31 -22 40 -13 9 -18 16 -12 16 5 1 16 -5 22 -11z m2404 -45 c-6 -10 -9 -2 -10
24 0 33 1 35 9 15 5 -13 5 -30 1 -39z m25 25 c-3 -8 -6 -5 -6 6 -1 11 2 17 5
13 3 -3 4 -12 1 -19z m-717 2 c0 -5 -12 -10 -27 -9 -25 0 -26 1 -8 9 27 12 35
12 35 0z m27 -12 c-3 -8 -6 -5 -6 6 -1 11 2 17 5 13 3 -3 4 -12 1 -19z m-987
2 c0 -5 -4 -10 -10 -10 -5 0 -10 5 -10 10 0 6 5 10 10 10 6 0 10 -4 10 -10z
m35 -21 c11 -16 1 -19 -13 -3 -7 8 -8 14 -3 14 5 0 13 -5 16 -11z m950 -10 c2
-2 -25 -4 -60 -4 -52 0 -60 2 -43 11 18 10 91 4 103 -7z m-1005 1 c-20 -13
-33 -13 -25 0 3 6 14 10 23 10 15 0 15 -2 2 -10z m835 -30 c-17 -19 -17 -20 1
-21 10 0 14 -3 8 -5 -6 -3 -22 0 -35 5 -13 5 -18 10 -11 10 7 1 20 8 28 16 23
22 30 18 9 -5z m766 -8 c-6 -2 -11 -14 -11 -27 0 -13 -4 -26 -9 -29 -5 -3 -7
9 -5 27 1 17 3 38 3 46 1 11 4 11 17 0 10 -8 12 -15 5 -17z m53 19 c3 -5 -6
-21 -19 -35 -17 -18 -25 -22 -25 -12 0 8 9 21 21 30 20 13 20 14 2 19 -15 4
-15 5 -1 6 9 0 19 -3 22 -8z m-1509 -61 c3 -5 1 -10 -4 -10 -6 0 -11 5 -11 10
0 6 2 10 4 10 3 0 8 -4 11 -10z m70 0 c3 -5 -1 -10 -10 -10 -9 0 -13 5 -10 10
3 6 8 10 10 10 2 0 7 -4 10 -10z m50 -8 c-3 -3 -11 0 -18 7 -9 10 -8 11 6 5
10 -3 15 -9 12 -12z m485 8 c0 -5 -4 -10 -10 -10 -5 0 -10 5 -10 10 0 6 5 10
10 10 6 0 10 -4 10 -10z m-1346 -39 c-3 -26 11 -62 24 -60 20 3 33 -2 27 -11
-11 -17 -44 8 -65 50 -24 48 -24 49 -2 47 14 -1 18 -8 16 -26z m2196 9 c-6
-11 -13 -20 -16 -20 -2 0 0 9 6 20 6 11 13 20 16 20 2 0 0 -9 -6 -20z m-2110
-70 c0 -5 -5 -10 -11 -10 -5 0 -7 5 -4 10 3 6 8 10 11 10 2 0 4 -4 4 -10z
m2040 7 c0 -2 -10 -12 -22 -23 l-23 -19 19 23 c18 21 26 27 26 19z m-2049 -44
c13 -16 12 -17 -3 -4 -10 7 -18 15 -18 17 0 8 8 3 21 -13z m57 -54 c-11 -7
-10 -11 2 -19 11 -7 17 -4 22 13 4 16 6 11 5 -14 l-2 -37 -31 32 c-30 30 -28
51 3 39 12 -5 12 -7 1 -14z m1914 1 c-18 -11 -36 -20 -40 -20 -14 1 43 40 58
40 8 0 0 -9 -18 -20z m-1752 -70 c0 -5 -4 -10 -9 -10 -6 0 -13 5 -16 10 -3 6
1 10 9 10 9 0 16 -4 16 -10z m1617 -6 c-3 -3 -12 -4 -19 -1 -8 3 -5 6 6 6 11
1 17 -2 13 -5z m-1686 -21 c13 -16 12 -17 -3 -4 -10 7 -18 15 -18 17 0 8 8 3
21 -13z m1664 -13 c-3 -5 -10 -10 -16 -10 -5 0 -9 5 -9 10 0 6 7 10 16 10 8 0
12 -4 9 -10z m-50 -46 c-12 -9 -21 -11 -23 -4 -4 11 -23 14 -21 3 3 -20 -2
-33 -14 -33 -7 0 -13 11 -13 24 0 21 4 23 38 20 24 -2 38 1 38 8 0 6 3 8 7 4
5 -4 -1 -14 -12 -22z m-1439 -11 c1 -12 -3 -20 -8 -17 -5 3 -7 12 -5 18 3 8
-5 13 -24 13 -24 0 -27 -3 -16 -15 10 -12 6 -12 -20 2 -18 9 -33 18 -33 19 0
1 24 2 53 2 47 0 52 -2 53 -22z m194 -63 c0 -5 -2 -10 -4 -10 -3 0 -8 5 -11
10 -3 6 -1 10 4 10 6 0 11 -4 11 -10z m988 -17 c-10 -2 -28 -2 -40 0 -13 2 -5
4 17 4 22 1 32 -1 23 -4z m-1023 -13 c-3 -5 -11 -10 -16 -10 -6 0 -7 5 -4 10
3 6 11 10 16 10 6 0 7 -4 4 -10z m158 -54 c4 -10 0 -12 -14 -9 -22 6 -26 23
-5 23 8 0 16 -6 19 -14z m66 -2 c1 -1 1 -7 0 -13 -3 -6 -16 -2 -34 10 l-30 20
30 -7 c17 -4 32 -8 34 -10z m218 10 c-3 -3 -12 -4 -19 -1 -8 3 -5 6 6 6 11 1
17 -2 13 -5z m228 -14 c-3 -4 -23 -6 -45 -3 -26 4 -40 2 -40 -6 0 -6 -5 -11
-10 -11 -7 0 -6 6 1 18 8 13 21 16 55 14 24 -2 42 -8 39 -12z m-185 0 c0 -5
-5 -10 -11 -10 -5 0 -7 5 -4 10 3 6 8 10 11 10 2 0 4 -4 4 -10z m290 1 c0 -5
12 -12 28 -14 21 -3 19 -4 -11 -6 -23 0 -36 3 -32 9 3 6 -3 10 -15 10 -12 0
-19 -4 -16 -9 4 -5 -4 -7 -16 -3 -21 5 -21 6 -2 13 27 11 64 11 64 0z m-413
-7 c-3 -3 -12 -4 -19 -1 -8 3 -5 6 6 6 11 1 17 -2 13 -5z m100 -14 c2 0 3 -5
3 -10 0 -7 -6 -7 -19 0 -11 5 -32 10 -48 10 -20 0 -24 3 -14 9 8 5 27 5 45 0
17 -5 32 -9 33 -9z m-147 0 l25 -8 -25 0 c-14 0 -36 4 -50 8 l-25 8 25 0 c14
0 36 -4 50 -8z m355 -9 c-6 -6 -25 -6 -45 -1 l-35 8 45 1 c27 1 40 -3 35 -8z"/>
<path d="M8840 5260 c0 -5 5 -10 10 -10 6 0 10 5 10 10 0 6 -4 10 -10 10 -5 0
-10 -4 -10 -10z"/>
<path d="M9379 5053 c-13 -16 -12 -17 4 -4 9 7 17 15 17 17 0 8 -8 3 -21 -13z"/>
<path d="M10245 5210 c3 -5 14 -10 23 -10 15 0 15 2 2 10 -20 13 -33 13 -25 0z"/>
<path d="M6870 5730 c0 -5 -6 -7 -14 -4 -8 3 -19 -3 -25 -15 -13 -24 -14 -34
-2 -27 11 7 23 -22 15 -35 -7 -12 -31 -11 -40 2 -4 8 0 9 15 4 24 -7 29 10 5
19 -15 6 -43 -18 -44 -37 0 -4 -11 -20 -24 -34 -14 -15 -23 -30 -20 -35 3 -5
0 -7 -8 -6 -7 2 -12 -3 -10 -9 1 -7 -2 -13 -6 -13 -4 0 -30 -32 -57 -71 -28
-39 -65 -91 -84 -116 -19 -26 -29 -43 -23 -39 7 4 12 1 12 -9 0 -11 -5 -15
-15 -11 -9 3 -21 -5 -32 -22 -10 -15 -24 -33 -31 -41 -7 -7 -11 -20 -8 -27 3
-9 0 -11 -11 -7 -10 4 -14 2 -10 -4 4 -6 -1 -14 -10 -17 -15 -6 -15 -8 -3 -16
13 -8 13 -10 -1 -10 -8 0 -25 -13 -37 -30 l-23 -30 23 0 c19 0 20 -2 8 -10 -8
-5 -22 -7 -31 -4 -18 5 -33 -21 -22 -39 3 -7 2 -9 -2 -4 -10 9 -45 -21 -45
-40 0 -7 -5 -13 -11 -13 -8 0 -8 -4 -2 -12 12 -16 13 -49 1 -42 -5 3 -6 9 -3
14 10 17 -13 19 -26 3 -10 -12 -10 -14 -1 -9 23 14 12 -14 -13 -30 -26 -17
-121 -144 -117 -156 1 -5 -2 -8 -6 -8 -10 0 -75 -86 -72 -95 1 -4 -3 -11 -10
-15 -15 -10 -22 -82 -7 -77 7 2 14 14 16 28 3 21 4 22 10 5 10 -26 -30 -69
-61 -64 -15 2 -22 -2 -20 -10 1 -8 -2 -11 -8 -7 -12 8 1 29 33 56 11 9 18 22
15 29 -4 13 -78 -79 -78 -98 0 -5 -7 -12 -15 -16 -8 -3 -12 -12 -9 -20 3 -8 0
-17 -7 -22 -8 -5 -10 -3 -4 7 4 8 -6 -2 -23 -21 -17 -19 -31 -39 -32 -43 0 -4
-11 -20 -25 -35 -20 -22 -22 -29 -12 -39 8 -8 11 -28 9 -48 -6 -48 -17 -44
-16 4 2 30 -1 38 -12 34 -8 -3 -11 -9 -8 -14 3 -5 1 -9 -5 -9 -14 0 -91 -105
-91 -124 0 -8 -5 -18 -12 -22 -7 -5 -8 -2 -3 7 5 8 4 11 -1 6 -5 -5 -10 -13
-10 -18 -1 -5 -2 -14 -3 -20 0 -5 -5 -8 -10 -5 -5 3 -17 -7 -27 -22 -10 -15
-24 -33 -31 -41 -8 -7 -12 -20 -9 -28 3 -8 1 -11 -4 -8 -5 3 -20 -11 -34 -32
-14 -21 -34 -49 -45 -63 -14 -18 -17 -29 -10 -42 11 -21 3 -41 -13 -32 -7 5
-9 1 -5 -9 3 -10 2 -17 -4 -17 -6 0 -9 8 -7 18 2 9 10 16 16 14 14 -2 16 14 3
23 -12 7 -42 -35 -35 -47 3 -5 1 -7 -4 -6 -12 4 -66 -61 -58 -69 3 -4 12 1 19
11 12 16 13 16 13 -3 0 -11 -4 -17 -8 -15 -4 3 -8 -2 -8 -10 0 -9 5 -16 10
-16 6 0 10 -7 10 -15 0 -24 -15 -17 -28 13 -11 27 -12 26 -7 -8 3 -19 8 -78
11 -130 2 -52 7 -104 11 -114 3 -11 7 -44 8 -75 1 -31 6 -100 10 -154 l8 -98
878 3 c484 2 879 0 879 -4 0 -5 -4 -8 -10 -8 -5 0 -10 -7 -10 -16 0 -8 3 -13
8 -11 4 3 4 -124 1 -281 -4 -198 -2 -289 5 -294 6 -5 136 -7 289 -5 l277 2 1
308 c0 231 3 307 12 307 7 0 6 4 -3 11 -11 7 -6 8 20 4 33 -7 34 -6 15 9 -11
9 -15 16 -7 16 7 0 20 -9 29 -20 16 -18 30 -20 140 -20 120 0 123 0 124 23 4
56 -3 475 -7 500 l-6 28 -123 -3 c-68 -2 -121 0 -118 5 2 4 58 7 124 7 102 0
119 2 119 16 0 14 -17 15 -142 12 -79 -3 -152 -8 -163 -12 -16 -6 -17 -6 -5 3
10 7 11 11 2 11 -10 0 -12 205 -12 1013 l0 1012 -445 3 c-285 1 -445 -1 -445
-8z m253 -7 c-46 -2 -120 -2 -165 0 -46 1 -9 3 82 3 91 0 128 -2 83 -3z m-252
-17 c10 6 13 -9 3 -19 -9 -9 -33 16 -26 28 3 5 7 4 10 -3 2 -7 8 -10 13 -6z
m6 -58 c-3 -8 -6 -5 -6 6 -1 11 2 17 5 13 3 -3 4 -12 1 -19z m-87 -53 c-7 -8
-17 -12 -23 -8 -6 4 -8 0 -4 -10 3 -10 2 -17 -4 -17 -6 0 -9 7 -7 16 2 8 7 14
11 12 5 -2 13 5 19 15 5 10 12 16 15 13 3 -3 0 -12 -7 -21z m-76 -80 c3 -8 1
-15 -4 -15 -6 0 -10 7 -10 15 0 8 2 15 4 15 2 0 6 -7 10 -15z m-6 -50 c3 -11
0 -15 -7 -10 -6 3 -9 11 -6 16 4 5 2 9 -3 9 -5 0 -12 -9 -15 -20 -3 -11 -11
-20 -19 -20 -8 0 -9 3 -2 8 6 4 14 15 17 25 8 22 31 17 35 -8z m-23 -54 c-8
-14 -42 -14 -51 0 -4 7 0 9 14 5 11 -4 23 -2 27 4 4 6 9 9 12 6 3 -2 2 -9 -2
-15z m-45 -32 c0 -5 -4 -9 -10 -9 -5 0 -9 -10 -7 -21 1 -12 -5 -24 -13 -26
-13 -4 -13 -3 -1 5 12 9 12 13 2 26 -10 12 -11 16 -1 16 7 0 10 7 7 14 -4 10
-1 13 9 9 7 -3 14 -9 14 -14z m-56 -47 c3 -5 -1 -9 -9 -9 -8 0 -12 4 -9 9 3 4
7 8 9 8 2 0 6 -4 9 -8z m-24 -86 c0 -6 -5 -3 -11 7 -6 9 -14 15 -20 12 -11 -7
-12 8 -2 19 8 8 33 -22 33 -38z m584 -36 c-6 -6 -10 -3 -10 10 0 13 4 16 10
10 7 -7 7 -13 0 -20z m36 26 c0 -3 -4 -8 -10 -11 -5 -3 -10 -1 -10 4 0 6 5 11
10 11 6 0 10 -2 10 -4z m17 -18 c-3 -8 -6 -5 -6 6 -1 11 2 17 5 13 3 -3 4 -12
1 -19z m-7 -23 c6 -8 9 -19 5 -25 -4 -7 -6 -337 -6 -735 2 -627 0 -723 -13
-728 -19 -7 -1062 -8 -1081 0 -23 8 -19 20 30 84 25 33 43 65 39 71 -4 6 -3 8
3 5 12 -8 166 200 158 213 -4 6 -1 9 5 8 6 -2 19 7 27 20 15 21 15 22 -3 15
-17 -6 -17 -5 -5 10 7 9 17 14 22 11 13 -8 11 10 -2 23 -14 14 -2 36 17 29 23
-9 38 31 22 65 -4 10 -2 16 5 16 18 0 15 -58 -4 -85 -12 -16 -18 -19 -22 -10
-2 7 -8 9 -13 5 -9 -8 15 -29 26 -22 4 2 28 36 54 74 39 58 45 74 36 90 -6 13
-6 22 0 26 5 3 7 12 3 20 -3 9 1 15 11 15 20 0 21 -14 2 -30 -8 -6 -12 -18 -9
-26 8 -21 23 -17 23 7 0 11 5 17 10 14 6 -3 10 0 10 8 0 8 7 17 15 21 8 3 15
15 15 27 0 12 3 19 6 16 7 -7 44 36 44 50 0 4 -9 -3 -19 -16 l-18 -24 -12 33
c-6 18 -9 35 -7 38 3 2 8 -8 12 -23 6 -26 8 -27 20 -11 7 10 20 19 30 20 10 2
23 11 28 21 6 11 21 30 33 44 12 14 20 27 18 29 -6 7 -44 -39 -56 -67 -5 -13
-12 -21 -15 -18 -3 3 2 19 10 36 10 19 12 32 6 36 -20 12 -9 22 25 22 41 0 47
4 49 36 1 18 4 22 13 16 8 -7 28 13 67 68 31 43 66 91 78 108 12 16 17 26 10
21 -7 -4 -12 -1 -12 8 0 9 6 13 14 10 26 -10 70 70 73 134 2 31 8 61 14 66 7
8 9 0 4 -27 -7 -33 -5 -37 11 -30 21 7 73 63 73 78 0 6 -6 1 -14 -9 -8 -11
-15 -16 -15 -10 1 15 27 44 34 37 7 -7 23 11 62 70 27 41 35 44 54 22z m-88
-42 c-16 -3 -22 -9 -18 -20 4 -11 2 -13 -9 -10 -8 4 -19 -1 -24 -11 -6 -10
-11 -12 -11 -4 0 20 39 52 63 51 l22 -2 -23 -4z m-636 -48 c-4 -14 -11 -25
-17 -25 -8 0 -8 4 0 13 6 8 8 17 5 20 -4 3 -3 14 1 24 10 25 19 0 11 -32z
m731 3 c-3 -7 -5 -2 -5 12 0 14 2 19 5 13 2 -7 2 -19 0 -25z m-765 0 c-6 -6
-15 -8 -19 -4 -4 4 -1 11 7 16 19 12 27 3 12 -12z m-32 -67 c0 -5 -7 -11 -14
-14 -10 -4 -13 -1 -9 9 6 15 23 19 23 5z m620 -1 c0 -5 -4 -10 -10 -10 -5 0
-10 5 -10 10 0 6 5 10 10 10 6 0 10 -4 10 -10z m-700 -140 c0 -5 -5 -10 -11
-10 -5 0 -7 5 -4 10 3 6 8 10 11 10 2 0 4 -4 4 -10z m585 0 c-3 -5 -1 -10 5
-10 6 0 8 -5 4 -11 -4 -7 -10 -7 -16 -1 -9 9 -3 32 8 32 3 0 2 -4 -1 -10z
m-679 -67 c0 -10 4 -29 8 -43 5 -19 5 -21 -3 -10 -9 13 -11 12 -11 -4 0 -19 0
-19 -18 0 -17 17 -17 21 -3 46 18 32 27 35 27 11z m605 -2 c-7 -5 -10 -14 -6
-21 6 -9 9 -9 16 1 7 11 9 11 9 1 0 -7 -7 -15 -16 -19 -8 -3 -13 -12 -10 -19
3 -8 0 -11 -10 -7 -17 6 -19 23 -3 23 6 0 8 7 5 16 -7 19 0 34 17 34 8 0 7 -3
-2 -9z m-645 -63 c5 -8 2 -9 -9 -5 -10 3 -17 2 -17 -3 0 -6 -5 -10 -11 -10 -8
0 -8 5 1 15 15 18 26 19 36 3z m577 -17 c17 -6 16 -8 -7 -21 -14 -7 -29 -10
-33 -7 -3 4 1 7 10 7 22 0 22 17 0 23 -12 3 -13 5 -3 5 8 0 23 -3 33 -7z m45
-16 c-3 -3 -9 2 -12 12 -6 14 -5 15 5 6 7 -7 10 -15 7 -18z m-648 -29 c0 -5
-7 -3 -15 4 -16 14 -21 0 -5 -16 6 -6 -1 -10 -19 -10 l-29 -2 26 29 c19 22 28
26 34 17 4 -7 8 -17 8 -22z m614 -11 c-17 -27 -38 -29 -40 -4 -1 9 1 10 3 2 7
-19 20 -15 26 7 3 11 10 20 16 20 7 0 5 -10 -5 -25z m-809 -222 c-19 -19 -11
-31 9 -14 8 7 17 8 20 3 6 -11 -33 -24 -45 -16 -5 3 -3 16 3 29 6 13 15 22 20
19 4 -3 1 -12 -7 -21z m545 -48 c-7 -8 -18 -15 -24 -15 -6 0 -2 7 8 15 25 19
32 19 16 0z m50 -15 c0 -5 -7 -10 -16 -10 -8 0 -12 5 -9 10 3 6 10 10 16 10 5
0 9 -4 9 -10z m-656 -16 c4 -10 2 -13 -6 -8 -8 5 -9 1 -4 -12 5 -14 4 -16 -4
-8 -6 6 -8 18 -4 27 8 21 10 21 18 1z m549 -129 c-3 -9 -8 -14 -10 -11 -3 3
-2 9 2 15 9 16 15 13 8 -4z m-662 -33 c-19 -6 -51 -44 -51 -59 0 -8 5 -11 10
-8 6 3 10 2 10 -3 0 -5 -11 -9 -24 -9 -24 0 -24 0 -9 26 28 45 67 83 72 69 2
-6 -1 -14 -8 -16z m12 -29 c-7 -2 -19 -2 -25 0 -7 3 -2 5 12 5 14 0 19 -2 13
-5z m534 -27 c-7 -14 -13 -23 -15 -21 -7 6 9 45 18 45 4 0 3 -11 -3 -24z
m-667 -107 c0 -6 -4 -8 -9 -4 -6 3 -14 -3 -20 -12 -6 -10 -11 -15 -11 -10 0 4
5 16 12 26 12 20 28 19 28 0z m609 -51 c-15 -28 -26 -29 -26 -4 0 18 5 24 17
23 14 -1 16 -5 9 -19z m-73 -78 c0 -11 -4 -20 -8 -20 -10 0 -11 24 -1 33 9 9
9 10 9 -13z m-610 -23 c1 -17 -1 -26 -3 -19 -3 6 -9 12 -15 12 -6 0 -7 -8 -3
-17 5 -14 4 -15 -6 -6 -9 9 -8 18 5 37 9 15 17 26 19 26 1 0 2 -15 3 -33z
m-48 -9 c-2 -6 -15 -18 -28 -27 l-24 -16 19 27 c20 28 40 38 33 16z m637 -17
c-3 -6 -11 -11 -17 -11 -6 0 -6 6 2 15 14 17 26 13 15 -4z m-81 -45 c-3 -9
-10 -16 -15 -16 -6 0 -5 9 1 21 13 24 24 20 14 -5z m38 -14 c-9 -10 -19 -14
-20 -10 -5 12 19 39 29 33 4 -3 1 -14 -9 -23z m-35 -44 c-16 -9 -27 0 -21 17
5 11 9 12 19 2 9 -8 10 -14 2 -19z m718 -109 c-165 -4 -345 -9 -400 -12 -70
-3 -76 -2 -20 2 70 5 59 6 -85 11 -91 3 53 5 320 5 454 1 466 0 185 -6z m-682
-21 c-17 -8 -29 -8 -45 0 -20 9 -18 11 22 11 40 0 42 -2 23 -11z m1654 6 c-3
-3 -12 -4 -19 -1 -8 3 -5 6 6 6 11 1 17 -2 13 -5z m-597 -8 c0 -2 -11 -6 -25
-8 -14 -3 -25 -1 -25 3 0 5 11 9 25 9 14 0 25 -2 25 -4z m637 -12 c-3 -3 -12
-4 -19 -1 -8 3 -5 6 6 6 11 1 17 -2 13 -5z m-2405 -109 c3 -13 1 -22 -3 -19
-9 5 -13 44 -5 44 2 0 6 -11 8 -25z m-1 -62 c-12 -20 -14 -14 -5 12 4 9 9 14
11 11 3 -2 0 -13 -6 -23z m512 -320 c-35 -2 -91 -2 -125 0 -35 2 -7 3 62 3 69
0 97 -1 63 -3z m600 0 c-13 -2 -33 -2 -45 0 -13 2 -3 4 22 4 25 0 35 -2 23 -4z
m617 -2 c0 -5 -7 -12 -16 -15 -14 -5 -15 -4 -4 9 14 17 20 19 20 6z m25 -1 c3
-5 1 -10 -4 -10 -6 0 -11 5 -11 10 0 6 2 10 4 10 3 0 8 -4 11 -10z m-1462 -17
c-24 -2 -62 -2 -85 0 -24 2 -5 4 42 4 47 0 66 -2 43 -4z m640 0 c-68 -2 -178
-2 -245 0 -68 1 -13 3 122 3 135 0 190 -2 123 -3z m1620 0 c-13 -2 -33 -2 -45
0 -13 2 -3 4 22 4 25 0 35 -2 23 -4z"/>
<path d="M6973 4978 c-2 -22 -1 -22 19 1 16 18 15 20 -1 18 -9 0 -18 -9 -18
-19z"/>
<path d="M6656 4578 c3 -5 10 -6 15 -3 13 9 11 12 -6 12 -8 0 -12 -4 -9 -9z"/>
<path d="M6206 4811 c-4 -7 -5 -15 -2 -18 9 -9 19 4 14 18 -4 11 -6 11 -12 0z"/>
<path d="M13246 5729 c4 -7 0 -9 -13 -5 -14 4 -25 -2 -42 -24 -12 -17 -19 -35
-16 -40 3 -6 0 -10 -8 -10 -15 0 -12 -56 5 -77 8 -10 4 -12 -19 -7 -33 6 -60
-16 -47 -38 11 -18 13 -51 2 -40 -22 22 -17 59 12 87 17 16 30 35 30 43 0 8
-18 -7 -39 -34 -30 -39 -38 -56 -34 -77 5 -27 -9 -37 -23 -15 -4 7 -3 8 4 4 8
-4 12 0 12 11 -1 15 -4 15 -21 -6 -11 -13 -18 -30 -15 -38 7 -18 -4 -44 -16
-37 -6 4 -5 10 3 15 7 4 10 11 6 15 -7 7 -46 -35 -47 -50 0 -6 7 -1 16 10 15
18 15 18 5 -2 -6 -12 -21 -28 -34 -37 -16 -10 -24 -25 -24 -46 0 -16 3 -29 6
-27 3 2 6 -9 7 -26 1 -16 -2 -24 -6 -18 -6 9 -9 9 -12 -1 -4 -11 -8 -11 -21 3
-15 15 -15 18 4 43 12 14 19 28 17 31 -3 2 -24 -20 -47 -51 -37 -49 -40 -58
-21 -57 3 0 5 -15 6 -34 0 -19 -3 -34 -8 -34 -4 0 -7 3 -5 8 1 4 -2 7 -8 7 -5
0 -9 -2 -8 -5 1 -3 -7 -6 -18 -7 -16 -2 -14 2 9 22 15 13 23 27 19 31 -8 8
-59 -49 -57 -62 1 -4 -2 -10 -7 -13 -5 -3 -20 -22 -33 -41 -13 -19 -27 -37
-30 -40 -21 -18 -80 -113 -75 -120 7 -11 45 -14 45 -4 0 3 -5 15 -11 26 -9 16
-8 19 2 13 9 -6 11 -3 6 9 -5 11 -3 15 5 10 7 -5 8 -3 3 6 -5 9 -4 11 3 6 8
-4 10 -2 6 7 -3 8 0 18 7 23 9 5 10 2 6 -9 -4 -11 -1 -17 7 -17 19 0 38 25 40
54 0 13 6 22 12 19 21 -8 -1 -57 -32 -73 -38 -20 -54 -41 -48 -63 7 -22 -22
-34 -47 -19 -15 10 -25 1 -79 -71 -33 -45 -60 -84 -59 -87 1 -3 -15 -23 -35
-44 -20 -22 -36 -43 -36 -47 0 -4 -13 -22 -29 -40 -17 -18 -29 -35 -28 -38 1
-3 -11 -19 -26 -35 -15 -16 -27 -37 -27 -47 0 -11 -7 -19 -16 -19 -10 0 -14
-6 -10 -15 3 -8 2 -14 -3 -12 -4 1 -41 -43 -82 -98 -63 -84 -74 -105 -73 -135
2 -26 1 -30 -5 -15 -5 11 -7 23 -4 28 8 14 -5 7 -18 -10 -12 -14 -12 -16 1 -9
13 7 13 6 0 -6 -49 -45 -62 -66 -50 -87 6 -12 7 -21 3 -20 -21 3 -24 -2 -12
-18 12 -14 12 -16 0 -8 -11 6 -13 4 -8 -8 16 -40 19 -52 9 -38 -6 8 -12 10
-16 3 -3 -6 -15 -10 -26 -9 -18 1 -18 3 -2 29 9 15 21 28 26 28 5 0 6 3 3 7
-4 3 -2 12 5 20 6 7 8 16 6 19 -3 3 -16 -12 -29 -33 -13 -20 -32 -46 -42 -56
-14 -14 -16 -22 -8 -30 6 -6 11 -16 11 -21 0 -6 -4 -4 -10 4 -7 12 -12 12 -29
-4 -11 -10 -18 -23 -15 -27 3 -5 2 -9 -3 -9 -4 0 -21 -17 -37 -37 -21 -26 -29
-46 -28 -69 2 -22 -3 -34 -14 -38 -25 -10 -30 2 -8 18 10 8 16 17 12 21 -4 4
-29 -24 -57 -61 -40 -56 -48 -71 -38 -83 10 -12 9 -13 -2 -6 -11 6 -13 2 -7
-21 3 -16 8 -65 11 -109 2 -44 12 -147 21 -230 9 -82 17 -162 18 -177 0 -14 4
-24 8 -22 4 2 9 0 13 -6 3 -5 1 -10 -4 -10 -6 0 -11 -4 -11 -10 0 -7 292 -10
856 -10 852 0 856 0 851 20 -3 11 -1 18 4 14 5 -3 9 -12 9 -20 0 -8 4 -14 10
-14 6 0 9 -112 7 -305 -1 -168 1 -305 6 -305 4 0 8 136 9 303 l3 302 5 -305
c3 -168 8 -282 11 -255 l5 50 2 -48 2 -47 248 2 247 3 5 307 c5 292 6 308 25
322 26 19 33 12 10 -10 -9 -9 -14 -25 -12 -35 3 -11 1 -19 -4 -19 -5 0 -9
-119 -9 -279 0 -239 2 -280 15 -285 13 -5 15 32 15 297 0 222 3 306 12 315 7
7 30 11 53 10 l40 -1 -45 -7 c-26 -4 32 -7 135 -6 l180 1 2 288 c2 219 -1 287
-10 288 -7 0 -91 1 -187 2 l-175 2 -3 1011 c-2 953 -3 1012 -20 1016 -16 5
-17 -48 -15 -996 2 -754 6 -1007 15 -1024 12 -22 14 -23 189 -22 98 1 183 -1
189 -5 13 -8 13 -35 0 -35 -5 0 -10 7 -10 15 0 13 -26 15 -178 15 -161 0 -181
2 -195 18 -16 17 -17 102 -17 1014 0 548 -3 1003 -6 1012 -5 14 -44 16 -326
16 -213 0 -326 -4 -340 -11 -11 -6 -18 -7 -15 -2 3 4 -26 8 -64 8 -38 0 -61
-3 -52 -7 15 -6 15 -7 -4 -7 -12 -1 -25 4 -28 9 -3 6 -11 10 -16 10 -6 0 -7
-5 -3 -11z m-46 -59 c0 -5 -2 -10 -4 -10 -3 0 -8 5 -11 10 -3 6 -1 10 4 10 6
0 11 -4 11 -10z m-13 -72 c-3 -7 -5 -2 -5 12 0 14 2 19 5 13 2 -7 2 -19 0 -25z
m-147 -218 c0 -5 -5 -10 -11 -10 -5 0 -7 5 -4 10 3 6 8 10 11 10 2 0 4 -4 4
-10z m-135 -129 c3 -6 -3 -9 -14 -8 -11 0 -17 5 -15 9 7 11 22 10 29 -1z m584
-37 c-6 -8 -21 -14 -33 -13 -14 0 -16 2 -6 6 8 3 19 12 23 20 5 7 13 11 18 7
6 -4 6 -11 -2 -20z m67 -19 c-4 -14 -2 -25 4 -25 5 0 10 9 10 19 0 11 5 23 12
27 8 5 9 2 5 -10 -4 -10 -8 -349 -9 -754 l-3 -737 -5 725 -5 725 -5 -732 -5
-732 23 -6 c12 -3 22 -10 22 -16 0 -8 -5 -7 -15 1 -8 7 -24 10 -34 7 -11 -3
-22 0 -23 5 -2 6 -200 10 -542 11 l-539 2 -2 22 c-1 12 2 21 7 20 5 -1 21 14
35 33 l26 35 -27 -28 c-14 -15 -26 -24 -26 -19 0 5 9 17 20 27 11 10 17 22 14
26 -3 5 1 6 8 4 12 -5 65 52 61 65 -1 3 5 9 13 13 8 5 12 12 9 18 -4 5 -1 9 4
9 6 0 10 14 9 32 -3 26 2 35 25 46 15 7 27 18 27 23 0 6 -5 7 -11 3 -8 -4 -7
0 1 15 6 12 8 32 5 44 -4 15 -3 18 3 9 7 -11 10 -11 15 2 4 9 12 16 18 16 7 0
5 -8 -6 -20 -9 -10 -18 -33 -19 -50 -1 -19 -12 -40 -29 -56 -15 -14 -25 -30
-21 -35 5 -9 32 22 103 122 28 41 31 50 21 70 -11 23 -10 23 5 4 15 -19 16
-19 33 5 9 14 17 27 18 30 3 17 17 39 23 36 3 -2 15 8 25 22 11 14 14 22 8 18
-6 -3 -13 -2 -17 4 -4 6 -11 8 -16 5 -5 -4 -9 -2 -9 4 0 5 5 13 10 16 6 3 10
1 10 -4 0 -21 19 -11 22 11 2 14 11 24 23 26 18 2 18 2 3 -8 -10 -6 -18 -18
-18 -27 0 -11 6 -8 21 11 11 14 17 31 13 37 -4 7 -3 9 3 6 6 -4 17 1 24 10 12
14 12 16 0 8 -9 -5 -12 -4 -7 3 4 6 0 22 -9 36 -14 21 -14 24 0 30 9 3 13 2
10 -4 -3 -5 -1 -19 5 -30 9 -17 14 -19 25 -10 10 9 12 17 5 29 -6 13 -5 18 5
18 8 0 12 -4 9 -9 -9 -15 3 -8 17 9 10 11 10 14 2 9 -21 -12 -15 18 8 48 11
14 24 24 28 21 13 -7 44 32 35 46 -5 8 -3 10 6 4 10 -6 12 -4 7 8 -3 9 -2 19
4 23 5 3 7 15 4 27 -5 20 -5 20 5 4 9 -14 9 -22 -1 -33 -10 -12 -9 -13 5 -8 9
3 16 10 16 14 0 6 37 58 70 97 6 8 6 14 0 18 -15 9 5 40 27 40 13 0 18 7 18
25 0 19 4 24 20 21 20 -3 20 -3 1 18 -11 12 -14 21 -8 21 7 0 12 -4 12 -10 0
-5 7 -7 15 -4 8 4 12 10 9 15 -3 5 2 12 10 15 19 7 127 150 119 158 -4 3 -1 6
5 6 7 0 12 5 12 11 0 6 11 20 25 31 14 11 23 23 20 28 -3 4 0 19 5 32 l11 23
-5 -23 c-4 -19 -2 -21 9 -12 8 6 13 24 13 39 -1 31 8 51 23 51 5 0 2 -12 -7
-27 -11 -21 -7 -18 17 10 38 43 54 47 45 12z m-96 -27 c0 -18 -2 -20 -9 -8 -6
8 -7 18 -5 22 9 14 14 9 14 -14z m137 -70 c-2 -13 -4 -3 -4 22 0 25 2 35 4 23
2 -13 2 -33 0 -45z m-797 6 c0 -8 -5 -12 -10 -9 -6 4 -8 11 -5 16 9 14 15 11
15 -7z m-48 -56 c-8 -8 -9 -4 -5 13 4 13 8 18 11 10 2 -7 -1 -18 -6 -23z m655
24 c7 6 15 9 18 7 2 -3 -4 -10 -15 -16 -15 -10 -21 -9 -31 5 -11 14 -11 15 1
5 10 -9 17 -10 27 -1z m-27 -27 c7 -9 8 -15 2 -15 -5 0 -12 7 -16 15 -3 8 -4
15 -2 15 2 0 9 -7 16 -15z m-14 -53 c-13 -13 -18 -14 -28 -3 -11 10 -9 12 7 9
13 -2 19 2 17 10 -1 8 2 11 9 7 8 -5 6 -12 -5 -23z m-46 -2 c0 -5 -4 -10 -9
-10 -6 0 -13 5 -16 10 -3 6 1 10 9 10 9 0 16 -4 16 -10z m20 -24 c0 -3 -4 -8
-10 -11 -5 -3 -10 -1 -10 4 0 6 5 11 10 11 6 0 10 -2 10 -4z m-20 -30 c0 -2
-8 -10 -17 -17 -16 -13 -17 -12 -4 4 13 16 21 21 21 13z m-693 -73 c-8 -17
-13 -20 -19 -11 -6 10 -8 10 -8 1 0 -7 -5 -13 -11 -13 -8 0 -8 5 1 15 7 8 17
12 23 8 6 -4 8 0 5 9 -4 8 -1 15 7 15 10 0 11 -6 2 -24z m603 13 c0 -2 -7 -9
-15 -16 -12 -10 -15 -10 -15 4 0 9 7 16 15 16 8 0 15 -2 15 -4z m-674 -98 c-3
-13 -5 -35 -5 -50 -1 -16 -5 -28 -9 -28 -10 0 -8 56 3 83 10 24 16 21 11 -5z
m588 -27 c3 -4 -1 -17 -10 -27 -14 -18 -15 -18 -5 3 8 16 8 23 -2 26 -9 4 -9
6 0 6 6 1 14 -3 17 -8z m-635 -42 c-19 -12 -24 -2 -8 17 9 11 14 13 17 4 3 -7
-2 -16 -9 -21z m631 -19 c-6 -11 -15 -20 -20 -20 -6 0 -2 9 7 20 10 11 19 20
21 20 1 0 -2 -9 -8 -20z m-617 -7 c-7 -2 -19 -2 -25 0 -7 3 -2 5 12 5 14 0 19
-2 13 -5z m551 -10 c-5 -5 -12 -12 -16 -18 -4 -6 -8 -2 -8 8 0 9 7 17 17 17 9
0 12 -3 7 -7z m31 -23 c3 -5 -1 -10 -10 -10 -9 0 -13 5 -10 10 3 6 8 10 10 10
2 0 7 -4 10 -10z m-635 -21 c-13 -8 -13 -10 0 -19 12 -7 11 -9 -5 -8 -12 1
-21 9 -21 19 0 10 4 16 7 13 4 -2 11 1 14 7 4 5 10 8 13 4 4 -3 0 -10 -8 -16z
m577 -21 c-3 -8 -6 -5 -6 6 -1 11 2 17 5 13 3 -3 4 -12 1 -19z m-657 -60 c0
-6 -3 -8 -7 -5 -3 4 -13 1 -21 -6 -13 -11 -14 -9 -2 10 14 22 30 22 30 1z
m-85 -108 c-4 -11 -2 -20 4 -20 6 0 11 -10 10 -22 0 -23 0 -23 -10 1 l-10 25
-21 -22 c-12 -12 -19 -25 -14 -29 4 -4 11 -2 15 5 6 10 10 10 20 -2 11 -13 8
-15 -23 -12 -20 1 -36 -1 -36 -6 0 -4 -5 -8 -11 -8 -6 0 8 21 30 46 23 26 41
51 41 55 0 5 3 9 6 9 3 0 2 -9 -1 -20z m522 -115 c-13 -14 -27 -11 -27 6 0 6
5 7 12 3 8 -5 9 -2 4 11 -5 15 -4 16 8 6 12 -10 13 -16 3 -26z m-627 -35 c0
-5 -5 -10 -11 -10 -5 0 -7 5 -4 10 3 6 8 10 11 10 2 0 4 -4 4 -10z m-51 -94
c8 -10 9 -16 1 -21 -5 -3 -10 1 -10 9 0 23 -17 20 -23 -4 -3 -11 -10 -20 -16
-20 -7 0 -5 10 5 25 19 29 27 31 43 11z m621 0 c0 -2 -6 -9 -14 -15 -11 -9
-16 -9 -22 0 -4 7 -3 9 4 5 6 -3 13 -2 17 4 6 10 15 14 15 6z m-637 -55 c-9
-11 -20 -18 -25 -15 -12 8 11 34 28 34 11 0 10 -4 -3 -19z m577 -42 c-12 -16
-24 -28 -27 -26 -4 5 37 57 44 57 3 0 -5 -14 -17 -31z m-106 -74 c-4 -9 -15
-20 -26 -26 -17 -9 -18 -8 -9 9 9 17 17 24 38 31 1 1 0 -6 -3 -14z m-620 -31
c4 -10 2 -13 -6 -8 -8 5 -9 1 -4 -12 6 -15 4 -16 -5 -7 -6 6 -9 19 -6 27 8 20
13 20 21 0z m597 -41 c13 -16 12 -17 -3 -4 -10 7 -18 15 -18 17 0 8 8 3 21
-13z m-666 -108 c0 -30 -3 -39 -11 -31 -6 5 -8 21 -6 34 3 14 -1 28 -9 33 -10
6 -9 8 6 7 16 -2 20 -9 20 -43z m589 20 c-8 -20 6 -19 23 3 13 15 13 15 3 -5
-6 -13 -15 -23 -20 -23 -13 0 -22 18 -15 30 9 15 15 12 9 -5z m-621 -62 c-7
-2 -19 -2 -25 0 -7 3 -2 5 12 5 14 0 19 -2 13 -5z m537 -23 c-6 -11 -13 -20
-16 -20 -2 0 0 9 6 20 6 11 13 20 16 20 2 0 0 -9 -6 -20z m30 1 c-5 -11 -15
-23 -22 -27 -7 -5 -8 -2 -3 7 21 37 44 55 25 20z m-637 -21 c-5 -19 -23 -29
-23 -12 0 7 20 32 26 32 1 0 0 -9 -3 -20z m27 0 c0 -5 -5 -10 -11 -10 -5 0 -7
5 -4 10 3 6 8 10 11 10 2 0 4 -4 4 -10z m590 -60 c0 -4 -6 -10 -12 -13 -8 -3
-13 4 -13 18 0 18 3 21 13 13 6 -6 12 -14 12 -18z m-625 -65 c4 -36 5 -69 1
-72 -3 -4 -6 14 -6 38 0 25 -4 39 -8 32 -5 -7 -8 4 -7 27 0 62 13 47 20 -25z
m1595 45 l-125 -6 80 -5 c51 -4 44 -4 -20 -1 -55 2 -273 7 -485 11 l-385 7
530 -1 c292 0 474 -2 405 -5z m830 -13 l95 1 -90 -7 c-49 -3 -95 -10 -101 -13
-6 -4 -20 2 -30 14 -19 20 -19 21 6 13 14 -5 68 -8 120 -8z m-2403 -19 c-3 -8
-6 -5 -6 6 -1 11 2 17 5 13 3 -3 4 -12 1 -19z m633 15 c-14 -3 -28 -10 -31
-15 -4 -6 -13 -7 -20 -3 -16 11 14 24 51 23 l25 -1 -25 -4z m1093 0 c-7 -2
-19 -2 -25 0 -7 3 -2 5 12 5 14 0 19 -2 13 -5z m-1076 -19 c-3 -3 -12 -4 -19
-1 -8 3 -5 6 6 6 11 1 17 -2 13 -5z m-650 -146 c-2 -13 -4 -3 -4 22 0 25 2 35
4 23 2 -13 2 -33 0 -45z m-20 -10 c-3 -7 -5 -2 -5 12 0 14 2 19 5 13 2 -7 2
-19 0 -25z m18 -74 c9 -15 12 -23 5 -19 -7 4 -16 1 -21 -6 -6 -10 -9 -4 -9 19
0 39 3 40 25 6z m5 -60 c0 -8 -4 -12 -10 -9 -5 3 -10 10 -10 16 0 5 5 9 10 9
6 0 10 -7 10 -16z m1433 -201 c-13 -2 -33 -2 -45 0 -13 2 -3 4 22 4 25 0 35
-2 23 -4z m1247 -3 c0 -5 -8 -10 -17 -10 -15 0 -16 2 -3 10 19 12 20 12 20 0z
m-930 -21 c0 -6 -4 -7 -10 -4 -5 3 -10 11 -10 16 0 6 5 7 10 4 6 -3 10 -11 10
-16z m-117 4 c-35 -2 -91 -2 -125 0 -35 2 -7 3 62 3 69 0 97 -1 63 -3z"/>
<path d="M13170 4734 c0 -8 5 -12 10 -9 6 4 8 11 5 16 -9 14 -15 11 -15 -7z"/>
<path d="M12986 4485 c-9 -14 -12 -25 -7 -25 12 0 35 39 28 46 -2 3 -12 -7
-21 -21z"/>
<path d="M8925 5400 c-3 -5 -2 -10 4 -10 5 0 13 5 16 10 3 6 2 10 -4 10 -5 0
-13 -4 -16 -10z"/>
<path d="M12927 5293 c-4 -3 -7 -11 -7 -17 0 -6 5 -5 12 2 6 6 9 14 7 17 -3 3
-9 2 -12 -2z"/>
<path d="M6000 4540 c0 -5 7 -10 15 -10 8 0 15 5 15 10 0 6 -7 10 -15 10 -8 0
-15 -4 -15 -10z"/>
<path d="M12040 4065 c-8 -9 -8 -15 -2 -15 12 0 26 19 19 26 -2 2 -10 -2 -17
-11z"/>
<path d="M1866 3948 c-35 -55 -45 -250 -14 -270 7 -4 35 -8 62 -8 l49 0 -9 63
c-11 79 -11 141 -1 195 l7 42 -40 0 c-30 0 -43 -5 -54 -22z"/>
<path d="M2422 3793 c-17 -59 -30 -142 -35 -214 -4 -55 -15 -84 -67 -189 -34
-68 -80 -165 -102 -215 -22 -49 -58 -130 -80 -180 -88 -200 -138 -356 -138
-432 0 -51 21 -104 57 -144 40 -44 156 -104 221 -114 l42 -7 0 129 c0 87 4
133 12 141 15 15 63 16 89 2 25 -14 24 -41 -6 -170 -13 -57 -22 -106 -20 -108
2 -2 36 1 77 7 126 20 244 88 286 166 20 37 28 176 38 645 6 291 5 345 -10
414 -18 89 -55 164 -105 214 -47 48 -145 92 -202 92 -44 0 -46 -1 -57 -37z"/>
<path d="M8090 3670 c0 -16 5 -30 11 -30 7 0 9 -81 7 -260 -2 -143 0 -260 5
-260 4 0 7 10 8 23 1 21 1 21 8 -3 11 -37 21 130 21 337 0 147 -2 173 -15 173
-8 0 -15 5 -15 10 0 6 4 10 9 10 5 0 11 7 15 15 4 11 -2 15 -24 15 -27 0 -30
-3 -30 -30z m37 -332 c-1 -57 -3 -11 -3 102 0 113 2 159 3 103 2 -57 2 -149 0
-205z"/>
<path d="M8601 3405 c1 -19 18 -51 18 -35 0 8 -4 22 -9 30 -5 8 -9 11 -9 5z"/>
<path d="M9702 1342 c-59 -22 -134 -80 -174 -138 -16 -21 -35 -70 -45 -108
-14 -59 -15 -79 -5 -138 15 -85 37 -130 94 -187 68 -68 128 -94 228 -99 118
-6 183 19 266 102 75 75 97 131 96 247 0 62 -5 90 -25 131 -35 76 -98 142
-164 174 -77 36 -195 43 -271 16z m218 -145 c60 -31 90 -89 90 -171 0 -83 -14
-126 -52 -163 -42 -40 -76 -53 -143 -53 -126 0 -185 67 -185 213 0 85 44 159
110 186 47 18 133 13 180 -12z"/>
<path d="M7450 1336 c-30 -6 -70 -20 -89 -30 -43 -23 -121 -101 -121 -121 0
-9 -7 -23 -15 -31 -24 -24 -38 -94 -33 -170 9 -131 76 -230 196 -287 58 -27
70 -29 151 -25 69 3 99 10 143 31 100 49 170 152 184 270 l7 57 -187 0 -186 0
0 -25 0 -25 150 0 c172 0 166 4 129 -94 -27 -74 -99 -139 -170 -156 -81 -20
-169 -8 -228 30 -171 109 -170 388 1 494 37 22 64 30 118 34 100 7 154 -11
213 -70 39 -39 54 -48 83 -48 l35 0 -18 31 c-62 107 -224 167 -363 135z"/>
<path d="M8750 1010 l0 -340 80 0 80 0 0 215 c0 118 3 215 8 215 4 -1 61 -87
127 -192 165 -262 141 -238 236 -238 l79 0 0 340 0 340 -80 0 -80 0 0 -210 c0
-115 -3 -210 -7 -210 -5 0 -69 95 -143 210 l-135 210 -82 0 -83 0 0 -340z"/>
<path d="M10242 1298 l3 -53 90 -3 90 -3 -3 -279 -3 -280 75 0 76 0 2 278 3
277 93 0 92 0 0 58 0 57 -261 0 -260 0 3 -52z"/>
<path d="M11170 1010 l0 -341 78 3 77 3 2 140 1 140 101 3 101 3 0 59 0 60
-100 0 -100 0 0 75 0 75 135 0 135 0 0 60 0 60 -215 0 -215 0 0 -340z"/>
<path d="M11940 1341 c-96 -28 -171 -93 -215 -186 -21 -45 -27 -74 -28 -129
-2 -106 24 -177 93 -248 58 -60 79 -72 174 -94 106 -26 226 6 296 76 85 86
114 163 108 280 -5 78 -9 92 -40 141 -29 45 -73 91 -123 127 -44 32 -203 52
-265 33z m181 -147 c95 -48 126 -194 65 -299 -32 -54 -82 -79 -156 -79 -88 1
-133 32 -169 117 -24 56 -25 76 -10 149 9 40 21 62 50 90 21 20 49 39 61 41
36 7 130 -4 159 -19z"/>
<path d="M12500 1130 c0 -196 2 -228 20 -281 37 -107 131 -173 250 -173 84 0
150 25 199 74 71 72 74 87 82 350 4 129 4 239 -1 243 -4 4 -37 7 -74 5 l-68
-3 2 -216 c1 -231 -4 -259 -47 -296 -21 -19 -38 -23 -90 -23 -58 0 -68 3 -94
29 l-29 29 0 241 0 241 -75 0 -75 0 0 -220z"/>
<path d="M13210 1015 l0 -335 75 0 75 0 0 210 c0 245 3 252 75 140 25 -39 45
-72 45 -75 0 -3 7 -13 15 -22 8 -10 48 -70 89 -133 l73 -115 77 -3 76 -3 0
336 0 335 -75 0 -75 0 0 -215 c0 -166 -3 -215 -12 -215 -13 1 -88 112 -88 130
0 6 -4 10 -10 10 -5 0 -10 7 -10 15 0 8 -4 15 -10 15 -5 0 -10 4 -10 8 0 4
-34 59 -75 121 -41 63 -75 118 -75 122 0 5 -36 9 -80 9 l-80 0 0 -335z"/>
<path d="M13970 1010 l0 -343 168 5 c190 6 227 16 317 86 79 62 115 139 115
247 0 48 -6 100 -16 128 -23 68 -92 140 -172 179 -66 33 -67 33 -239 36 l-173
4 0 -342z m351 199 c68 -38 94 -92 94 -199 -1 -93 -12 -125 -62 -173 -37 -35
-80 -47 -165 -47 l-68 0 0 226 0 227 78 -5 c58 -3 90 -11 123 -29z"/>
<path d="M6010 1005 l0 -335 30 0 30 0 0 145 0 145 83 0 c99 1 161 14 204 43
58 39 86 131 63 203 -31 94 -120 134 -295 134 l-115 0 0 -335z m264 286 c38
-6 57 -16 79 -41 27 -31 29 -37 25 -101 -5 -86 -26 -118 -94 -141 -38 -12 -70
-15 -132 -11 l-82 6 0 148 0 149 78 -1 c42 0 99 -4 126 -8z"/>
<path d="M6805 1332 c-16 -2 -33 -38 -83 -175 -35 -95 -71 -190 -82 -212 -17
-36 -100 -261 -100 -271 0 -2 13 -4 28 -4 26 0 30 6 57 80 l29 80 96 1 c52 1
126 2 165 3 l69 1 8 -40 c5 -22 16 -59 25 -82 14 -37 20 -43 45 -43 20 0 29 4
25 13 -2 6 -15 41 -27 77 -13 36 -28 70 -35 75 -9 8 -47 111 -60 165 -2 7 -23
60 -34 85 -8 19 -35 95 -69 197 -17 50 -24 56 -57 50z m53 -165 c19 -50 47
-128 63 -172 43 -120 46 -115 -68 -115 -54 0 -115 -3 -135 -6 -35 -6 -38 -5
-38 17 -1 34 122 369 135 369 5 0 25 -42 43 -93z"/>
<path d="M7990 1008 l0 -333 162 5 c90 3 162 8 161 13 -2 4 -3 12 -3 17 0 6
-51 10 -134 10 l-135 0 2 133 c2 109 5 132 17 133 8 1 61 2 118 3 95 1 102 2
102 21 0 19 -7 20 -120 20 l-121 0 2 130 1 130 134 0 134 0 0 25 0 25 -160 0
-160 0 0 -332z"/>
</g>
</svg>
