<svg xmlns="http://www.w3.org/2000/svg" width="768" height="1234" fill="none"><g clip-path="url(#a)"><path fill="#fff" d="M0 0h768v1234H0z"/><path fill="#F5F6FB" d="M0-1h768v583H120C53.726 582 0 528.274 0 462V-1Z"/><path fill="#DFE2EB" d="M538.653 1136.4c-3.974 0-7.874-.86-11.67-2.57a73.22 73.22 0 0 1-12.5-7.21c-.171-.12-.332-.26-.485-.39l-4.211 3.37a.891.891 0 0 1-1.021.07c-.146-.09-3.61-2.22-6.542-5.63-2.942-3.42-4.231-6.78-4.285-6.92a.882.882 0 0 1 .166-.9l2.588-2.92a1.1 1.1 0 0 1 .213-.18c-1.323-2.56-3.099-7.34-3.74-15.2-.567-6.96.318-12.67 2.628-16.96.123-.23.306-.61.504-1.02.339-.69.688-1.41.93-1.81.238-.38.496-.83.783-1.33 2.228-3.84 6.375-10.99 15.849-16.43 8.029-4.62 12.025-5.1 15.549-5.52 2.097-.26 3.907-.47 6.344-1.56 6.2-2.76 7.439-5.03 7.451-5.05.118-.22.331-.4.579-.46a.884.884 0 0 1 .723.13c.649.44 3.891 2.79 3.926 5.06.018 1.1-.365 1.85-.645 2.4-.286.56-.276.58-.155.74.13.17.366.27.741.41.896.33 2.248.84 2.311 3.44.05 2.08-1.048 3.23-1.942 4.07 1.767.88 6.298 3.28 9.892 6.42 2.321 2.03 4.142 4.4 5.261 6.03.854 1.25 1.368 2.07 1.662 2.63 1.145-.62 1.924-.88 2.529-1.09.709-.24 1.101-.38 1.715-.94 2.043-1.89 5.382-.41 5.786-.13.228.16.376.4.406.68.057.51-.235.82-.764 1.39-.879.95-2.709 2.92-3.588 6.27-.787 3-.623 6.49-.478 9.57.092 1.94.178 3.78.003 5.23-.574 4.74-1.769 14.6-9.071 22.71-3.492 3.88-7.874 7.27-12.406 9.65a.869.869 0 0 1-.26.13 35.347 35.347 0 0 1-3.368 1.53c-3.852 1.53-7.663 2.29-11.408 2.29Zm-4.882-2.28c6.643 1.24 13.11-.24 18.747-3.08.39-.79 1.521-3.45 1.437-7.46-.099-4.73-.921-6.22-.929-6.24a.886.886 0 0 1 .311-1.2.879.879 0 0 1 1.205.28c.11.17 1.081 1.86 1.191 7.12.054 2.61-.356 4.7-.801 6.17a43.113 43.113 0 0 0 9.84-8.09 29.796 29.796 0 0 0 3.489-4.75c-.325-.8-1.058-3.09-.66-6.93.463-4.48.634-6.93.635-6.95a.891.891 0 0 1 .948-.82c.49.03.86.45.826.94-.002.02-.174 2.49-.64 7.01-.204 1.97-.081 3.47.105 4.5 2.843-5.79 3.534-11.51 3.926-14.75.157-1.3.075-3.06-.013-4.93-.151-3.2-.322-6.83.534-10.1.915-3.48 2.718-5.62 3.759-6.76-.828-.21-1.996-.33-2.671.3-.891.82-1.566 1.05-2.348 1.32-.74.25-1.659.56-3.259 1.55-1.476.91-1.512 2.1-1.447 3.98.044 1.23.092 2.64-.633 3.88-1.269 2.17-2.813 1.67-3.835 1.34-.553-.18-1.034-.33-1.535-.22-.047.39.281 1.46.525 2.26.561 1.83 1.329 4.34.913 6.88-.232 1.41-.658 2.28-1.341 2.72-.796.52-1.643.31-2.324.13-.895-.23-1.069-.21-1.326.16-.984 1.42-1.258 2.72-1.639 4.51-.16.76-.343 1.61-.601 2.58-.404 1.5-1.18 2.56-2.306 3.13-1.712.86-4.177.63-7.756-.75a21.738 21.738 0 0 0-7.534-1.46h-.028c-.772 0-1.47.36-2.237.93-5.132 4.9-10.784 7.67-16.354 7.92-1.076.05-2.21.01-3.358-.1-1.251.32-2.005 1.28-2.313 2.2-.382 1.15-.256 2.76 1.248 3.84a70.718 70.718 0 0 0 12.194 7.03c1.291.58 2.583 1.05 3.87 1.41.568-.43 3.195-2.51 5.617-6.09-.187-.42-1.281-2.98-1.413-5.25-.066-1.13-.104-2.58.086-3.09l1.664.62s.011-.02.024-.07c-.005.02-.111.52.001 2.44.069 1.19.47 2.53.806 3.46 2.703-4.67 3.1-6.33 3.104-6.35a.885.885 0 0 1 1.054-.67c.476.1.783.56.686 1.03-.039.2-.47 2.04-3.525 7.26-2.071 3.54-4.479 5.95-5.919 7.21Zm-33.963-17.15c.452 1.02 1.665 3.47 3.767 5.91 2.1 2.45 4.553 4.23 5.602 4.94l3.327-2.67c-1.219-.93-3.174-2.45-4.422-3.52-3.299-2.82-5.675-6.08-5.775-6.21a1.08 1.08 0 0 1-.1-.18c-.103-.14-.232-.31-.382-.54l-2.017 2.27Zm5.915-.18c.937 1.06 2.151 2.33 3.517 3.5a101.8 101.8 0 0 0 3.079 2.48c-.039-.66.048-1.33.268-1.99.261-.78.679-1.45 1.214-2-3.064-.51-6.007-1.34-8.078-1.99Zm-2.057-2.57c1.217.44 7.269 2.57 12.838 3.13a5.45 5.45 0 0 1 1.076-.08c1.718.03 3.36-.09 4.877-.37 5.575-1.02 9.207-4.06 11.378-5.88.382-.32.725-.6 1.03-.84.097-.08.195-.15.293-.23a44.363 44.363 0 0 0 4.453-5.03c5.641-7.42 5.29-10.96 5.121-12.67l-.024-.25c-.039-.44-.287-1.23-.55-2.08-.683-2.19-1.617-5.2-.734-7.42.815-2.05 2.891-2.23 4.899-2.41 1.44-.13 2.929-.26 4.089-1.03 2.488-1.64 1.234-5.88.102-8.12-.448-.88-1-1.55-1.486-2.14-.835-1-1.697-2.04-1.302-3.61.252-1.01.949-1.65 1.622-2.28.855-.8 1.593-1.48 1.559-2.9-.035-1.41-.434-1.56-1.159-1.83-.486-.19-1.09-.41-1.537-1.01-.797-1.05-.342-1.95-.01-2.6.239-.47.464-.91.453-1.57-.012-.83-1.3-2.18-2.461-3.11-.903 1.05-3.015 2.92-7.714 5.02-2.682 1.2-4.71 1.44-6.856 1.7-3.357.4-7.16.86-14.875 5.29-9.062 5.21-12.903 11.84-15.197 15.79-.295.51-.562.97-.806 1.37-.196.32-.557 1.06-.846 1.66-.211.43-.406.83-.537 1.07-1.99 3.7-2.835 8.59-2.519 14.56 1.331-4.47 4.049-11.11 9.429-17.29 9.018-10.35 26.538-16 27.28-16.23a.889.889 0 0 1 1.116.57.892.892 0 0 1-.577 1.12c-.168.05-16.095 5.19-25.13 14.26 1.751.58 5.817 1.73 8.645 1.08 1.162-.26 2.167-.51 3.054-.74 2.194-.55 3.779-.94 5.645-1.01.011-.01.024-.01.035-.01.475 0 .869.38.888.86.019.49-.363.9-.854.92-1.601.06-3.046.4-4.984.89l1.732 1.66c.354.34.366.9.026 1.25a.893.893 0 0 1-1.257.03l-2.541-2.44c-.425.11-.874.21-1.35.32-3.868.88-9.315-1-10.365-1.39-.007.01-.014.02-.021.02-2.887 3.32-4.98 6.8-6.489 9.99 2.37-1.29 6.24-2.95 8.703-1.72 1.636.81 2.881 2.28 4.085 3.69 1.317 1.55 2.56 3.01 4.189 3.56a.887.887 0 1 1-.57 1.68c-2.096-.71-3.559-2.43-4.975-4.09-.514-.61-1.015-1.2-1.531-1.72-.373 1.15-.995 3.33-1.015 5.11-.028 2.53 1.24 6.12 1.252 6.15a.897.897 0 0 1-.539 1.14.896.896 0 0 1-1.136-.54c-.057-.16-1.388-3.92-1.356-6.77.028-2.5 1.048-5.52 1.334-6.32-.174-.11-.35-.22-.531-.31-2.219-1.1-7.315 1.73-8.925 2.81-.061.04-.125.07-.191.1-2.008 5.04-2.496 8.78-2.504 8.85l-.004.02c1.226 8.03 3.678 11.62 4.255 12.37Zm35.206-5.59c1.922.04 4.762.36 7.868 1.56 2.99 1.15 5.113 1.43 6.308.83.666-.34 1.122-1 1.395-2.01.246-.92.415-1.72.578-2.49.392-1.84.73-3.43 1.916-5.14 1.002-1.45 2.398-1.09 3.232-.88.361.1.77.2.91.11.057-.04.354-.29.558-1.53.349-2.12-.321-4.31-.86-6.07-.499-1.64-.86-2.82-.367-3.7.152-.27.456-.62 1.044-.78 1.023-.27 1.886.01 2.581.23.972.32 1.204.39 1.753-.55.466-.79.43-1.83.392-2.92-.059-1.69-.131-3.76 1.843-5.25-.646-1.16-2.996-5.14-6.561-8.26-3.752-3.27-8.732-5.78-9.941-6.37-.029.07-.053.14-.071.21-.162.64.099 1.03.949 2.05.519.63 1.166 1.41 1.703 2.47 1.734 3.44 2.59 8.22-.706 10.4-1.537 1.01-3.332 1.17-4.915 1.31-1.912.17-3.012.32-3.404 1.3-.652 1.64.176 4.3.78 6.25.304.97.566 1.82.623 2.45l.022.23c.191 1.93.588 5.94-5.474 13.91-.704.92-1.423 1.8-2.156 2.64ZM680 1070.01c0 3.96-.86 7.84-2.579 11.62a72.204 72.204 0 0 1-7.238 12.45c-.123.17-.254.33-.393.49l3.391 4.19c.236.29.262.7.065 1.02-.089.14-2.23 3.59-5.653 6.51-3.435 2.93-6.809 4.22-6.951 4.27a.9.9 0 0 1-.904-.16l-2.928-2.58c-.071-.07-.13-.14-.176-.21-2.576 1.31-7.37 3.08-15.263 3.72-6.99.57-12.722-.32-17.036-2.62-.231-.12-.609-.3-1.017-.5-.699-.34-1.422-.68-1.817-.92-.389-.24-.837-.5-1.334-.78-3.856-2.22-11.034-6.35-16.503-15.79-4.636-8-5.118-11.98-5.543-15.49-.253-2.08-.472-3.89-1.563-6.31-2.776-6.18-5.047-7.41-5.07-7.42a.912.912 0 0 1-.46-.58.88.88 0 0 1 .124-.72c.449-.65 2.806-3.88 5.084-3.91 1.104-.02 1.86.36 2.411.64.566.29.579.28.74.15.173-.12.268-.36.409-.73.337-.9.846-2.24 3.461-2.3 2.083-.05 3.246 1.04 4.089 1.93.882-1.76 3.289-6.27 6.442-9.85 2.037-2.31 4.418-4.13 6.055-5.24 1.25-.85 2.074-1.37 2.639-1.66a14.498 14.498 0 0 1-1.095-2.52c-.243-.7-.377-1.09-.948-1.7-1.896-2.04-.406-5.37-.126-5.77a.974.974 0 0 1 .68-.4c.511-.06.826.23 1.399.76.952.87 2.934 2.7 6.297 3.57 3.014.79 6.516.62 9.605.48 1.951-.09 3.793-.18 5.249 0 4.76.57 14.667 1.76 22.81 9.03 3.895 3.48 7.296 7.84 9.681 12.36.06.08.105.16.136.26a36.519 36.519 0 0 1 1.539 3.35c1.528 3.84 2.291 7.63 2.291 11.36Zm-2.281 4.86c1.246-6.61-.246-13.05-3.098-18.67-.796-.39-3.46-1.51-7.488-1.43-4.747.1-6.247.92-6.261.93-.421.23-.964.1-1.212-.31a.873.873 0 0 1 .281-1.2c.176-.11 1.869-1.08 7.154-1.19 2.622-.05 4.719.36 6.194.8a42.909 42.909 0 0 0-8.124-9.8 30.315 30.315 0 0 0-4.772-3.48c-.796.33-3.097 1.06-6.959.66-4.499-.46-6.952-.63-6.976-.63a.904.904 0 0 1-.827-.95.894.894 0 0 1 .949-.82c.025 0 2.503.17 7.037.64 1.981.2 3.485.08 4.521-.11-5.82-2.83-11.559-3.52-14.808-3.91-1.308-.15-3.078-.07-4.951.02-3.218.15-6.864.32-10.139-.54-3.503-.91-5.649-2.7-6.791-3.74-.216.83-.33 1.99.297 2.66.827.89 1.058 1.56 1.326 2.34.253.74.568 1.65 1.558 3.25.914 1.47 2.112 1.5 3.992 1.44 1.244-.05 2.653-.1 3.899.63 2.179 1.26 1.678 2.8 1.349 3.82-.179.55-.335 1.03-.218 1.53.385.04 1.462-.28 2.264-.53 1.841-.56 4.362-1.32 6.907-.91 1.422.23 2.291.66 2.737 1.34.52.79.303 1.64.127 2.31-.231.89-.21 1.07.163 1.32 1.425.98 2.726 1.26 4.527 1.64.758.16 1.619.34 2.586.6 1.512.4 2.569 1.17 3.142 2.29.871 1.71.632 4.16-.755 7.73-1.168 3-1.437 5.74-1.456 7.5v.03c0 .77.361 1.46.926 2.23 4.925 5.11 7.704 10.74 7.956 16.28.049 1.08.009 2.2-.097 3.35.314 1.24 1.283 2 2.208 2.3 1.152.38 2.768.26 3.851-1.24a70.768 70.768 0 0 0 7.061-12.15 26.563 26.563 0 0 0 1.411-3.85c-.429-.57-2.515-3.18-6.113-5.59-.425.18-2.994 1.27-5.27 1.4-1.135.07-2.594.11-3.102-.08l.627-1.66s-.021-.01-.074-.02c.021 0 .524.11 2.445 0 1.195-.07 2.539-.47 3.482-.81-4.69-2.69-6.361-3.09-6.378-3.09a.883.883 0 0 1 .363-1.73c.194.04 2.042.47 7.286 3.51 3.557 2.06 5.979 4.46 7.243 5.89Zm-17.22 33.83a25.35 25.35 0 0 0 5.935-3.75c2.453-2.09 4.241-4.54 4.954-5.58l-2.679-3.32c-.936 1.22-2.459 3.17-3.533 4.41-2.836 3.28-6.102 5.65-6.24 5.75-.056.04-.116.07-.177.1-.136.1-.316.23-.542.38l2.282 2.01Zm-.183-5.89a36.143 36.143 0 0 0 3.51-3.5c.719-.84 1.666-2.02 2.488-3.07a5.295 5.295 0 0 1-1.99-.27 5.162 5.162 0 0 1-2.012-1.21c-.514 3.05-1.34 5.99-1.996 8.05Zm-2.581 2.05c.446-1.21 2.583-7.24 3.144-12.79-.063-.34-.092-.7-.086-1.07.031-1.71-.091-3.35-.368-4.86-1.02-5.55-4.075-9.17-5.901-11.33-.322-.38-.61-.72-.85-1.03-.075-.09-.15-.19-.225-.29a43.61 43.61 0 0 0-5.056-4.43c-7.444-5.62-11.004-5.27-12.715-5.1l-.248.02c-.443.04-1.244.29-2.092.55-2.205.68-5.224 1.61-7.452.73-2.057-.81-2.242-2.88-2.421-4.88-.128-1.43-.261-2.92-1.031-4.07-1.652-2.48-5.901-1.23-8.151-.1-.889.44-1.558.99-2.148 1.48-1.011.83-2.056 1.69-3.633 1.29-1.007-.25-1.658-.94-2.287-1.61-.798-.85-1.488-1.59-2.915-1.55-1.414.03-1.564.43-1.836 1.15-.183.48-.41 1.08-1.007 1.53-1.061.79-1.959.34-2.615.01-.47-.24-.914-.46-1.578-.45-.833.01-2.184 1.29-3.122 2.45 1.059.9 2.938 3 5.042 7.68 1.2 2.67 1.445 4.69 1.704 6.83.405 3.34.864 7.13 5.318 14.82 5.231 9.02 11.88 12.85 15.853 15.13.51.3.972.56 1.372.8.321.2 1.066.56 1.664.85.434.21.836.4 1.082.53 3.714 1.98 8.625 2.83 14.613 2.51-4.486-1.33-11.157-4.03-17.357-9.39-10.392-8.98-16.063-26.43-16.3-27.17a.892.892 0 0 1 1.697-.54c.054.17 5.211 16.03 14.322 25.03.577-1.74 1.734-5.79 1.086-8.61a132.43 132.43 0 0 0-.741-3.04c-.552-2.19-.951-3.76-1.023-5.62l-.001-.04c0-.47.376-.86.855-.88.492-.02.906.36.924.85.063 1.59.41 3.03.897 4.96l1.664-1.72a.886.886 0 1 1 1.285 1.22l-2.442 2.53c.103.43.21.87.318 1.35.882 3.85-1.01 9.28-1.397 10.32.008.01.016.02.024.02 3.327 2.88 6.828 4.96 10.023 6.47-1.291-2.36-2.957-6.22-1.726-8.67.817-1.63 2.287-2.87 3.709-4.07 1.555-1.31 3.023-2.55 3.575-4.17a.894.894 0 0 1 1.129-.56.89.89 0 0 1 .557 1.13c-.71 2.08-2.438 3.54-4.109 4.95-.608.51-1.199 1.01-1.727 1.53 1.156.37 3.344.99 5.13 1.01 2.543.02 6.144-1.24 6.18-1.25a.888.888 0 0 1 1.137.54.884.884 0 0 1-.54 1.13c-.159.05-3.934 1.38-6.797 1.35-2.513-.03-5.546-1.05-6.346-1.33a5.38 5.38 0 0 0-.305.53c-1.107 2.21 1.734 7.28 2.817 8.89.041.06.074.12.098.19 5.066 2 8.823 2.48 8.888 2.49.009 0 .017 0 .025.01 8.057-1.23 11.661-3.67 12.416-4.24Zm-5.617-35.07c.047-1.91.369-4.74 1.571-7.83 1.159-2.98 1.437-5.1.828-6.29-.339-.66-.998-1.11-2.015-1.38-.921-.25-1.721-.42-2.494-.58-1.851-.39-3.451-.73-5.169-1.91-1.452-1-1.092-2.39-.876-3.22.092-.36.198-.76.106-.9-.038-.06-.288-.36-1.534-.56-2.135-.35-4.334.32-6.1.86-1.639.49-2.824.85-3.708.36-.272-.15-.63-.45-.785-1.04-.269-1.02.009-1.88.234-2.57.313-.97.39-1.2-.552-1.74-.801-.47-1.84-.43-2.94-.39-1.692.05-3.772.13-5.264-1.84-1.171.64-5.165 2.98-8.293 6.53-3.292 3.74-5.808 8.7-6.396 9.91.066.02.135.05.204.07.648.16 1.036-.1 2.065-.95.63-.52 1.414-1.16 2.481-1.7 3.446-1.72 8.247-2.57 10.436.71 1.02 1.53 1.18 3.32 1.322 4.89.17 1.91.315 3 1.304 3.39 1.644.65 4.316-.17 6.268-.77.981-.31 1.829-.57 2.459-.62l.233-.03c1.937-.19 5.966-.58 13.967 5.46.927.7 1.811 1.41 2.648 2.14Z"/><ellipse cx="535.5" cy="1168" fill="#F5F6FB" rx="33.5" ry="7"/><ellipse cx="646.5" cy="1152" fill="#F5F6FB" rx="33.5" ry="7"/></g><defs><clipPath id="a"><path fill="#fff" d="M0 0h768v1234H0z"/></clipPath></defs></svg>