<svg xmlns="http://www.w3.org/2000/svg" width="320" height="856" fill="none"><g clip-path="url(#a)"><path fill="#fff" d="M0 0h320v856H0z"/><path fill="#DFE2EB" d="M76.653 856c-3.974 0-7.874-.86-11.67-2.579a72.888 72.888 0 0 1-12.5-7.238 5.37 5.37 0 0 1-.485-.393l-4.211 3.391a.886.886 0 0 1-1.021.065c-.146-.089-3.61-2.23-6.542-5.653-2.942-3.435-4.231-6.809-4.285-6.951a.891.891 0 0 1 .166-.904l2.589-2.928a.914.914 0 0 1 .212-.176c-1.323-2.576-3.1-7.37-3.74-15.263-.566-6.99.318-12.722 2.628-17.036.123-.231.306-.609.504-1.017.339-.699.688-1.422.93-1.817.238-.389.496-.837.783-1.334 2.228-3.856 6.375-11.034 15.849-16.503 8.03-4.636 12.025-5.118 15.55-5.543 2.096-.253 3.906-.472 6.343-1.563 6.2-2.776 7.439-5.047 7.45-5.07a.912.912 0 0 1 .58-.46.889.889 0 0 1 .722.124c.65.449 3.892 2.806 3.927 5.084.018 1.104-.365 1.86-.645 2.411-.286.566-.276.579-.155.74.13.173.366.268.741.409.896.337 2.248.846 2.31 3.461.051 2.083-1.047 3.246-1.941 4.089 1.767.882 6.298 3.289 9.892 6.442 2.321 2.037 4.142 4.418 5.261 6.055.854 1.25 1.368 2.074 1.662 2.639a14.849 14.849 0 0 1 2.529-1.095c.709-.243 1.101-.377 1.715-.948 2.043-1.896 5.382-.406 5.786-.126a.954.954 0 0 1 .406.681c.057.51-.235.825-.764 1.398-.879.952-2.709 2.934-3.588 6.297-.787 3.014-.623 6.516-.478 9.605.092 1.951.178 3.793.003 5.249-.574 4.76-1.769 14.667-9.071 22.81-3.492 3.895-7.874 7.296-12.406 9.681a.9.9 0 0 1-.26.136 37.449 37.449 0 0 1-3.368 1.539C84.209 855.237 80.398 856 76.653 856Zm-4.882-2.281c6.642 1.246 13.11-.246 18.747-3.098.39-.796 1.521-3.46 1.437-7.488-.099-4.747-.92-6.247-.93-6.261a.899.899 0 0 1 .313-1.212.88.88 0 0 1 1.204.281c.11.176 1.08 1.869 1.191 7.154.054 2.622-.356 4.719-.801 6.194a43.148 43.148 0 0 0 9.84-8.124 29.946 29.946 0 0 0 3.489-4.772c-.325-.796-1.058-3.097-.66-6.959.463-4.499.634-6.952.635-6.976a.897.897 0 0 1 .948-.827c.49.033.86.458.826.949-.002.025-.174 2.503-.64 7.037-.204 1.981-.081 3.485.105 4.521 2.843-5.82 3.534-11.559 3.926-14.808.157-1.308.075-3.078-.013-4.951-.151-3.218-.322-6.864.534-10.139.915-3.503 2.718-5.649 3.759-6.791-.828-.216-1.996-.33-2.671.297-.891.827-1.566 1.058-2.348 1.326-.74.253-1.659.568-3.259 1.558-1.476.914-1.512 2.112-1.447 3.992.044 1.244.092 2.653-.633 3.899-1.269 2.179-2.813 1.678-3.835 1.349-.553-.179-1.034-.335-1.535-.218-.047.385.281 1.462.525 2.264.561 1.841 1.329 4.362.913 6.907-.232 1.422-.658 2.291-1.341 2.737-.796.52-1.643.303-2.324.127-.895-.231-1.069-.21-1.326.163-.984 1.425-1.258 2.726-1.639 4.527-.16.758-.343 1.619-.601 2.586-.404 1.512-1.18 2.569-2.306 3.142-1.712.871-4.177.632-7.755-.755a21.743 21.743 0 0 0-7.535-1.456h-.028c-.772 0-1.47.361-2.237.926-5.132 4.925-10.784 7.704-16.354 7.956-1.077.049-2.21.009-3.358-.097-1.251.314-2.005 1.283-2.313 2.208-.382 1.152-.256 2.768 1.248 3.851a71.102 71.102 0 0 0 12.194 7.061 26.951 26.951 0 0 0 3.87 1.411c.568-.429 3.195-2.515 5.617-6.113-.187-.425-1.28-2.994-1.413-5.27-.066-1.135-.104-2.594.086-3.102l1.664.627s.011-.021.024-.074c-.005.021-.111.524.001 2.445.07 1.195.47 2.539.806 3.482 2.703-4.69 3.1-6.361 3.104-6.378a.893.893 0 0 1 1.054-.678.884.884 0 0 1 .686 1.041c-.04.194-.47 2.042-3.525 7.286-2.071 3.557-4.48 5.979-5.919 7.243Zm-33.963-17.22a25.24 25.24 0 0 0 3.767 5.935c2.1 2.453 4.553 4.241 5.602 4.954l3.327-2.679c-1.218-.936-3.174-2.459-4.422-3.533-3.299-2.836-5.675-6.102-5.775-6.24a.906.906 0 0 1-.1-.177 10.847 10.847 0 0 1-.382-.542l-2.017 2.282Zm5.915-.183c.937 1.064 2.151 2.335 3.517 3.51.836.719 2.026 1.666 3.079 2.488a5.31 5.31 0 0 1 .268-1.99 5.231 5.231 0 0 1 1.214-2.012c-3.064-.514-6.007-1.34-8.078-1.996Zm-2.057-2.581c1.217.446 7.27 2.583 12.838 3.144a5.531 5.531 0 0 1 1.076-.086c1.718.031 3.36-.091 4.877-.368 5.575-1.02 9.208-4.075 11.378-5.901.382-.322.725-.61 1.03-.849l.293-.226a43.92 43.92 0 0 0 4.453-5.056c5.64-7.444 5.29-11.004 5.121-12.715l-.023-.248c-.04-.443-.288-1.244-.55-2.092-.684-2.205-1.619-5.224-.735-7.452.815-2.057 2.891-2.242 4.899-2.421 1.44-.128 2.929-.261 4.09-1.031 2.487-1.652 1.233-5.901.1-8.151-.447-.889-.999-1.558-1.485-2.148-.835-1.011-1.697-2.056-1.302-3.633.252-1.007.949-1.658 1.622-2.287.855-.798 1.593-1.488 1.559-2.915-.034-1.414-.434-1.564-1.159-1.836-.486-.183-1.09-.41-1.537-1.007-.797-1.061-.342-1.959-.01-2.615.239-.47.464-.914.453-1.578-.012-.833-1.3-2.184-2.46-3.122-.904 1.059-3.016 2.938-7.715 5.042-2.682 1.2-4.71 1.445-6.856 1.704-3.357.405-7.16.864-14.875 5.318-9.062 5.231-12.902 11.88-15.197 15.853-.295.51-.562.971-.806 1.372-.196.321-.557 1.066-.846 1.664-.211.434-.406.836-.537 1.082-1.99 3.714-2.835 8.625-2.519 14.613 1.331-4.486 4.05-11.157 9.429-17.357 9.018-10.392 26.538-16.063 27.28-16.3a.89.89 0 0 1 .54 1.697c-.169.054-16.096 5.211-25.13 14.322 1.75.577 5.816 1.734 8.644 1.086 1.162-.266 2.167-.518 3.054-.741 2.194-.552 3.78-.951 5.645-1.023l.035-.001a.889.889 0 0 1 .034 1.779c-1.601.063-3.046.41-4.984.897l1.732 1.664a.89.89 0 1 1-1.23 1.285l-2.542-2.442c-.425.103-.874.21-1.35.318-3.868.882-9.316-1.01-10.365-1.397l-.021.024c-2.887 3.327-4.98 6.828-6.489 10.023 2.37-1.291 6.24-2.957 8.703-1.726 1.636.817 2.88 2.287 4.085 3.709 1.317 1.555 2.56 3.023 4.19 3.575a.89.89 0 0 1-.571 1.686c-2.096-.71-3.56-2.438-4.975-4.109-.514-.608-1.015-1.199-1.531-1.727-.373 1.156-.995 3.344-1.015 5.13-.029 2.543 1.24 6.144 1.252 6.18a.89.89 0 0 1-.539 1.137.887.887 0 0 1-1.136-.54c-.057-.159-1.388-3.934-1.356-6.797.028-2.513 1.048-5.546 1.334-6.346a5.682 5.682 0 0 0-.531-.305c-2.22-1.107-7.315 1.734-8.925 2.817a.88.88 0 0 1-.191.098c-2.008 5.066-2.496 8.823-2.504 8.888l-.004.025c1.226 8.057 3.678 11.661 4.255 12.416Zm35.206-5.617c1.922.047 4.763.369 7.868 1.571 2.99 1.159 5.113 1.437 6.308.828.666-.339 1.122-.998 1.394-2.015a45.82 45.82 0 0 0 .58-2.494c.39-1.851.729-3.451 1.915-5.169 1.002-1.452 2.398-1.092 3.232-.876.361.092.77.198.91.106.057-.038.354-.288.558-1.534.349-2.135-.321-4.334-.86-6.1-.499-1.639-.86-2.824-.367-3.708.152-.272.456-.63 1.044-.785 1.023-.269 1.886.009 2.581.234.972.313 1.204.39 1.753-.552.466-.801.43-1.84.392-2.94-.059-1.692-.131-3.772 1.843-5.264-.646-1.171-2.996-5.165-6.561-8.293-3.752-3.292-8.732-5.808-9.94-6.396-.03.066-.054.135-.072.204-.162.648.1 1.036.949 2.065.52.63 1.166 1.414 1.703 2.481 1.734 3.446 2.59 8.247-.706 10.436-1.537 1.02-3.332 1.18-4.915 1.322-1.912.17-3.012.315-3.404 1.304-.652 1.644.175 4.316.78 6.268.304.981.566 1.829.623 2.459l.022.233c.191 1.937.588 5.966-5.474 13.967a49.055 49.055 0 0 1-2.156 2.648Z"/><path fill="#F5F6FB" d="M0-514h320v963H120C53.726 449 0 395.274 0 329v-843Z"/><path fill="#DFE2EB" d="M312.347 160c3.974 0 7.874.86 11.67 2.579a72.9 72.9 0 0 1 12.5 7.238c.171.123.332.254.485.393l4.211-3.391a.885.885 0 0 1 1.021-.065c.146.089 3.61 2.23 6.542 5.653 2.942 3.435 4.231 6.809 4.285 6.951a.893.893 0 0 1-.166.904l-2.588 2.928a.929.929 0 0 1-.213.176c1.323 2.576 3.099 7.37 3.74 15.263.567 6.99-.318 12.722-2.628 17.036-.123.231-.306.609-.504 1.017-.339.699-.688 1.422-.93 1.817-.238.389-.496.837-.783 1.334-2.228 3.856-6.375 11.034-15.849 16.503-8.029 4.636-12.025 5.118-15.549 5.543-2.097.253-3.907.472-6.344 1.563-6.2 2.776-7.439 5.047-7.451 5.07a.91.91 0 0 1-.579.46.89.89 0 0 1-.723-.124c-.649-.449-3.891-2.806-3.926-5.084-.018-1.104.365-1.86.645-2.411.286-.566.276-.579.155-.74-.13-.173-.366-.268-.741-.409-.896-.337-2.248-.846-2.311-3.461-.05-2.083 1.048-3.246 1.942-4.089-1.767-.882-6.298-3.289-9.892-6.442-2.321-2.037-4.142-4.418-5.261-6.055-.854-1.25-1.368-2.074-1.662-2.639a14.849 14.849 0 0 1-2.529 1.095c-.709.243-1.101.377-1.715.948-2.043 1.896-5.382.405-5.786.126a.954.954 0 0 1-.406-.681c-.057-.51.235-.825.764-1.398.879-.952 2.709-2.934 3.588-6.297.787-3.014.623-6.516.478-9.605-.092-1.951-.178-3.793-.003-5.249.574-4.76 1.769-14.667 9.071-22.81 3.492-3.895 7.874-7.296 12.406-9.681a.924.924 0 0 1 .26-.136 37.569 37.569 0 0 1 3.368-1.539c3.852-1.528 7.663-2.291 11.408-2.291Zm4.882 2.281c-6.643-1.246-13.11.246-18.747 3.098-.39.796-1.521 3.46-1.437 7.488.099 4.747.921 6.247.929 6.261a.9.9 0 0 1-.311 1.212.881.881 0 0 1-1.205-.281c-.11-.176-1.081-1.869-1.191-7.154-.054-2.622.356-4.719.801-6.194a43.147 43.147 0 0 0-9.84 8.124 29.946 29.946 0 0 0-3.489 4.772c.325.796 1.058 3.097.66 6.959-.463 4.499-.634 6.952-.635 6.976a.897.897 0 0 1-.948.827.889.889 0 0 1-.826-.949c.002-.025.174-2.503.64-7.037.204-1.981.081-3.485-.105-4.521-2.843 5.82-3.534 11.559-3.926 14.808-.157 1.308-.075 3.078.013 4.951.151 3.218.322 6.864-.534 10.139-.915 3.503-2.718 5.649-3.759 6.791.828.216 1.996.33 2.671-.297.891-.827 1.566-1.058 2.348-1.326.74-.253 1.659-.568 3.259-1.558 1.476-.914 1.512-2.112 1.447-3.992-.044-1.244-.092-2.653.633-3.899 1.269-2.179 2.813-1.678 3.835-1.349.553.179 1.034.335 1.535.218.047-.385-.281-1.462-.525-2.264-.561-1.841-1.329-4.362-.913-6.907.232-1.422.658-2.291 1.341-2.737.796-.52 1.643-.303 2.324-.127.895.231 1.069.21 1.326-.163.984-1.425 1.258-2.726 1.639-4.527.16-.758.343-1.619.601-2.586.404-1.512 1.18-2.569 2.306-3.142 1.712-.871 4.177-.632 7.756.755a21.74 21.74 0 0 0 7.534 1.456h.028c.772 0 1.47-.361 2.237-.926 5.132-4.925 10.784-7.704 16.354-7.956a24.632 24.632 0 0 1 3.358.097c1.251-.314 2.005-1.283 2.313-2.208.382-1.152.256-2.768-1.248-3.851a71.072 71.072 0 0 0-12.194-7.061 26.964 26.964 0 0 0-3.87-1.411c-.568.429-3.195 2.515-5.617 6.113.187.425 1.281 2.994 1.413 5.27.066 1.135.104 2.594-.086 3.102l-1.664-.627s-.011.021-.024.074c.005-.021.111-.524-.001-2.445-.069-1.195-.47-2.539-.806-3.482-2.703 4.69-3.1 6.361-3.104 6.378a.892.892 0 0 1-1.054.678.884.884 0 0 1-.686-1.041c.039-.194.47-2.042 3.525-7.286 2.071-3.557 4.479-5.979 5.919-7.243Zm33.963 17.22a25.243 25.243 0 0 0-3.767-5.935c-2.1-2.453-4.553-4.241-5.602-4.954l-3.327 2.679c1.219.936 3.174 2.459 4.422 3.533 3.299 2.836 5.675 6.102 5.775 6.24a.89.89 0 0 1 .1.177c.103.136.232.316.382.542l2.017-2.282Zm-5.915.183c-.937-1.064-2.151-2.335-3.517-3.51-.836-.719-2.025-1.666-3.079-2.488a5.312 5.312 0 0 1-.268 1.99 5.243 5.243 0 0 1-1.214 2.012c3.064.514 6.007 1.34 8.078 1.996Zm2.057 2.581c-1.217-.446-7.269-2.583-12.838-3.144a5.525 5.525 0 0 1-1.076.086c-1.718-.031-3.36.091-4.877.368-5.575 1.02-9.207 4.075-11.378 5.901-.382.322-.725.61-1.03.849l-.293.226a43.924 43.924 0 0 0-4.453 5.056c-5.641 7.444-5.29 11.004-5.121 12.715l.024.248c.039.443.287 1.244.55 2.092.683 2.205 1.617 5.224.734 7.452-.815 2.057-2.891 2.242-4.899 2.421-1.44.128-2.929.261-4.089 1.031-2.487 1.652-1.234 5.901-.102 8.151.448.889 1 1.558 1.486 2.148.835 1.011 1.697 2.056 1.302 3.633-.252 1.007-.949 1.658-1.622 2.287-.855.798-1.593 1.488-1.559 2.915.035 1.414.434 1.563 1.159 1.836.486.183 1.09.41 1.537 1.007.797 1.061.342 1.959.01 2.615-.239.47-.464.914-.453 1.578.012.833 1.3 2.184 2.461 3.122.903-1.059 3.015-2.938 7.714-5.042 2.682-1.2 4.71-1.445 6.856-1.704 3.357-.405 7.16-.864 14.875-5.318 9.062-5.231 12.903-11.88 15.197-15.853.295-.51.562-.972.806-1.372.196-.321.557-1.066.846-1.664.211-.434.406-.836.537-1.082 1.99-3.714 2.835-8.625 2.519-14.613-1.331 4.486-4.049 11.157-9.429 17.357-9.018 10.392-26.538 16.063-27.28 16.3a.89.89 0 0 1-.539-1.697c.168-.054 16.095-5.211 25.13-14.322-1.751-.577-5.817-1.734-8.645-1.086-1.162.266-2.167.518-3.054.741-2.194.552-3.779.951-5.645 1.023l-.035.001a.89.89 0 0 1-.034-1.779c1.601-.063 3.046-.41 4.984-.897l-1.732-1.664a.89.89 0 1 1 1.231-1.285l2.541 2.442c.425-.103.874-.21 1.35-.318 3.868-.882 9.315 1.01 10.365 1.397l.021-.024c2.887-3.327 4.98-6.828 6.489-10.023-2.37 1.291-6.24 2.957-8.703 1.726-1.636-.817-2.881-2.287-4.085-3.709-1.317-1.555-2.56-3.023-4.189-3.575a.89.89 0 0 1 .57-1.686c2.096.71 3.559 2.438 4.975 4.109.514.608 1.015 1.199 1.531 1.727.373-1.156.995-3.344 1.015-5.13.029-2.543-1.24-6.144-1.252-6.18a.89.89 0 1 1 1.675-.597c.057.159 1.388 3.934 1.356 6.797-.028 2.513-1.048 5.546-1.334 6.346.174.112.35.214.531.305 2.219 1.107 7.315-1.734 8.925-2.817a.886.886 0 0 1 .191-.098c2.008-5.066 2.496-8.823 2.504-8.888a.257.257 0 0 0 .004-.025c-1.226-8.057-3.678-11.661-4.255-12.416Zm-35.206 5.617a23.595 23.595 0 0 1-7.868-1.571c-2.99-1.159-5.113-1.437-6.308-.828-.666.339-1.122.998-1.395 2.015a45.953 45.953 0 0 0-.578 2.494c-.392 1.851-.73 3.45-1.916 5.169-1.002 1.452-2.398 1.092-3.232.876-.361-.092-.77-.198-.91-.106-.057.038-.354.288-.558 1.534-.349 2.135.321 4.334.86 6.1.499 1.639.86 2.824.367 3.708-.152.272-.456.63-1.044.785-1.023.269-1.886-.009-2.581-.234-.972-.313-1.204-.39-1.753.552-.466.801-.43 1.84-.392 2.94.059 1.692.131 3.772-1.843 5.264.646 1.171 2.996 5.165 6.561 8.293 3.752 3.292 8.732 5.808 9.941 6.396a1.37 1.37 0 0 0 .071-.204c.162-.648-.099-1.036-.949-2.065-.519-.63-1.166-1.414-1.703-2.481-1.734-3.446-2.59-8.247.706-10.436 1.537-1.02 3.332-1.18 4.915-1.322 1.912-.17 3.012-.315 3.404-1.304.652-1.644-.176-4.316-.78-6.268-.304-.981-.566-1.829-.623-2.459l-.022-.233c-.191-1.937-.588-5.966 5.474-13.967a49.014 49.014 0 0 1 2.156-2.648Z"/></g><defs><clipPath id="a"><path fill="#fff" d="M0 0h320v856H0z"/></clipPath></defs></svg>