<svg xmlns="http://www.w3.org/2000/svg" width="377" height="139" fill="none"><path fill="#000" d="m30.132 68.006-7.172 7.869V95H5.479V22.484H22.96V54.46l6.076-9.214 15.639-22.76H66.29L41.786 54.558 66.29 95H45.571l-15.44-26.994ZM100.307 95c-.598-1.096-1.13-2.706-1.594-4.831-3.088 3.885-7.404 5.827-12.95 5.827-5.08 0-9.396-1.527-12.949-4.582-3.552-3.088-5.329-6.956-5.329-11.604 0-5.844 2.159-10.26 6.475-13.249 4.316-2.988 10.592-4.482 18.826-4.482h5.18V59.24c0-4.947-2.142-7.42-6.425-7.42-3.984 0-5.977 1.958-5.977 5.876H68.78c0-5.213 2.208-9.446 6.624-12.7 4.45-3.254 10.11-4.88 16.984-4.88 6.873 0 12.301 1.676 16.286 5.03 3.984 3.353 6.026 7.952 6.126 13.795v23.857c.066 4.947.83 8.732 2.291 11.355V95h-16.784Zm-10.51-10.957c2.093 0 3.82-.448 5.18-1.345 1.395-.896 2.391-1.909 2.989-3.038v-8.616h-4.881c-5.844 0-8.766 2.623-8.766 7.87 0 1.526.515 2.772 1.544 3.734 1.03.93 2.341 1.395 3.935 1.395Zm84.37-15.589c0 8.367-1.893 15.058-5.678 20.071-3.752 4.98-8.832 7.471-15.24 7.471-4.947 0-9.015-1.81-12.202-5.429v25.152h-16.784V41.111h15.688l.498 4.98c3.221-3.984 7.454-5.976 12.7-5.976 6.641 0 11.804 2.457 15.49 7.371 3.685 4.881 5.528 11.605 5.528 20.171v.797Zm-16.784-1.046c0-9.562-2.789-14.343-8.367-14.343-3.985 0-6.641 1.427-7.969 4.283v21.216c1.461 2.989 4.15 4.483 8.068 4.483 5.346 0 8.102-4.615 8.268-13.846v-1.793Zm56.329 21.765c-3.553 4.549-8.351 6.823-14.394 6.823-5.91 0-10.392-1.71-13.447-5.13-3.021-3.453-4.532-8.4-4.532-14.842V41.111h16.784v35.013c0 4.615 2.241 6.923 6.724 6.923 3.851 0 6.591-1.378 8.217-4.134V41.111h16.884V95H214.21l-.498-5.827Zm53.689-9.314c0-1.427-.747-2.573-2.241-3.436-1.494-.863-4.333-1.76-8.516-2.69-4.184-.93-7.637-2.141-10.36-3.635-2.722-1.528-4.798-3.37-6.225-5.529-1.428-2.158-2.142-4.632-2.142-7.42 0-4.948 2.042-9.015 6.126-12.203 4.084-3.22 9.43-4.83 16.037-4.83 7.106 0 12.816 1.61 17.133 4.83 4.316 3.221 6.475 7.454 6.475 12.7h-16.834c0-4.316-2.275-6.474-6.824-6.474-1.759 0-3.237.498-4.432 1.494-1.196.963-1.793 2.175-1.793 3.636 0 1.494.73 2.706 2.191 3.636 1.461.93 3.785 1.693 6.973 2.29 3.22.598 6.043 1.312 8.467 2.142 8.101 2.79 12.152 7.786 12.152 14.991 0 4.914-2.192 8.915-6.574 12.003-4.35 3.088-9.994 4.632-16.934 4.632-4.615 0-8.732-.83-12.351-2.49-3.62-1.66-6.442-3.918-8.467-6.774-2.026-2.855-3.038-5.86-3.038-9.014h15.688c.067 2.49.897 4.316 2.49 5.478 1.594 1.13 3.636 1.694 6.126 1.694 2.291 0 4.001-.465 5.13-1.395 1.162-.93 1.743-2.142 1.743-3.636Zm43.629-52.145V41.11h8.866v11.655h-8.866v24.653c0 2.025.366 3.437 1.096 4.233.73.797 2.175 1.196 4.333 1.196 1.66 0 3.055-.1 4.184-.3v12.004c-3.022.963-6.176 1.444-9.463 1.444-5.778 0-10.044-1.361-12.8-4.084-2.756-2.723-4.134-6.856-4.134-12.401V52.766h-6.873V41.11h6.873V27.714h16.784ZM356.9 95c-.597-1.096-1.129-2.706-1.593-4.831-3.088 3.885-7.405 5.827-12.95 5.827-5.08 0-9.396-1.527-12.949-4.582-3.553-3.088-5.329-6.956-5.329-11.604 0-5.844 2.158-10.26 6.475-13.249 4.316-2.988 10.592-4.482 18.826-4.482h5.18V59.24c0-4.947-2.142-7.42-6.425-7.42-3.985 0-5.977 1.958-5.977 5.876h-16.784c0-5.213 2.208-9.446 6.624-12.7 4.449-3.254 10.11-4.88 16.983-4.88 6.873 0 12.302 1.676 16.287 5.03 3.984 3.353 6.026 7.952 6.126 13.795v23.857c.066 4.947.83 8.732 2.291 11.355V95H356.9Zm-10.508-10.957c2.091 0 3.818-.448 5.179-1.345 1.395-.896 2.391-1.909 2.989-3.038v-8.616h-4.881c-5.844 0-8.766 2.623-8.766 7.87 0 1.526.515 2.772 1.544 3.734 1.029.93 2.341 1.395 3.935 1.395Z"/><path fill="#000" d="M257 28h8v13h-8zM257 95h8v13h-8z"/><path fill="#52555F" d="M78.914 132.016c0-.443-.156-.782-.469-1.016-.312-.24-.875-.49-1.687-.75-.813-.266-1.456-.526-1.93-.781-1.291-.698-1.937-1.638-1.937-2.821 0-.614.171-1.161.515-1.64.35-.485.847-.862 1.492-1.133.651-.271 1.38-.406 2.188-.406.812 0 1.536.148 2.172.445.635.292 1.127.706 1.476 1.242.355.537.532 1.146.532 1.828h-2.344c0-.52-.164-.924-.492-1.211-.328-.291-.79-.437-1.383-.437-.573 0-1.018.122-1.336.367-.318.24-.477.557-.477.953 0 .37.185.68.555.93.375.25.924.484 1.648.703 1.334.401 2.305.899 2.915 1.492.609.594.914 1.334.914 2.219 0 .984-.373 1.758-1.118 2.32-.744.558-1.747.836-3.007.836-.875 0-1.672-.159-2.391-.476-.719-.323-1.268-.763-1.648-1.321-.375-.557-.563-1.203-.563-1.937h2.352c0 1.255.75 1.883 2.25 1.883.557 0 .992-.112 1.304-.336.313-.229.47-.547.47-.953Zm9.888-8.391 2.922 8.25 2.906-8.25h3.078V135h-2.351v-3.109l.234-5.368L92.52 135h-1.61l-3.062-8.469.234 5.36V135H85.74v-11.375h3.063Zm20.396 9.031h-4.11l-.781 2.344h-2.492l4.234-11.375h2.172L112.479 135h-2.492l-.789-2.344Zm-3.477-1.898h2.844l-1.43-4.258-1.414 4.258Zm14.911.078h-1.867V135h-2.344v-11.375h4.227c1.344 0 2.38.299 3.109.898.729.599 1.094 1.446 1.094 2.539 0 .777-.169 1.425-.508 1.946-.333.515-.841.927-1.523 1.234l2.461 4.649V135h-2.516l-2.133-4.164Zm-1.867-1.898h1.891c.588 0 1.044-.149 1.367-.446.323-.302.484-.716.484-1.242 0-.536-.153-.958-.461-1.266-.302-.307-.768-.461-1.398-.461h-1.883v3.415Zm18.927-3.415h-3.484V135h-2.344v-9.477h-3.438v-1.898h9.266v1.898Zm17.463 4.829h-4.5V135h-2.344v-11.375h7.406v1.898h-5.062v2.938h4.5v1.891Zm7.294 4.648h-2.344v-11.375h2.344V135Zm14.31 0h-2.344l-4.562-7.484V135h-2.344v-11.375h2.344l4.57 7.5v-7.5h2.336V135Zm11.489-2.344h-4.109l-.782 2.344h-2.492l4.235-11.375h2.172L191.529 135h-2.492l-.789-2.344Zm-3.476-1.898h2.843l-1.429-4.258-1.414 4.258Zm19.95 4.242h-2.344l-4.562-7.484V135h-2.344v-11.375h2.344l4.57 7.5v-7.5h2.336V135Zm13.856-3.789c-.088 1.224-.541 2.187-1.359 2.891-.812.703-1.885 1.054-3.219 1.054-1.458 0-2.606-.489-3.445-1.468-.833-.985-1.25-2.334-1.25-4.047v-.696c0-1.093.193-2.057.578-2.89.386-.834.935-1.472 1.649-1.914.718-.448 1.552-.672 2.5-.672 1.312 0 2.369.351 3.171 1.054.803.704 1.266 1.691 1.391 2.961h-2.344c-.057-.734-.263-1.265-.617-1.593-.349-.334-.883-.5-1.601-.5-.782 0-1.368.281-1.758.843-.386.558-.584 1.425-.594 2.602v.859c0 1.229.185 2.128.555 2.696.375.567.963.851 1.765.851.724 0 1.263-.164 1.618-.492.359-.333.565-.846.617-1.539h2.343Zm11.263-1.141h-4.5v3.047h5.281V135h-7.625v-11.375h7.61v1.898h-5.266v2.711h4.5v1.836Z"/></svg>