<svg xmlns="http://www.w3.org/2000/svg" width="183" height="64" fill="none"><path fill="#000" fill-rule="evenodd" d="m8.688 26.535 3.565-3.91 7.673 13.416h10.298l-12.179-20.1L30.224 0H19.48l-7.773 11.312-3.02 4.58V0H0v36.04h8.688v-9.505Zm37.65 7.104c.23 1.057.495 1.857.792 2.402h8.342v-.421c-.726-1.304-1.106-3.185-1.139-5.644V18.12c-.05-2.904-1.064-5.19-3.044-6.856-1.98-1.667-4.679-2.5-8.095-2.5-3.416 0-6.23.808-8.44 2.425-2.195 1.618-3.293 3.722-3.293 6.312h8.342c0-1.947.99-2.92 2.97-2.92 2.13 0 3.194 1.229 3.194 3.688v1.41h-2.575c-4.092 0-7.211.743-9.356 2.229-2.146 1.485-3.218 3.68-3.218 6.584 0 2.31.883 4.233 2.648 5.767 1.766 1.518 3.911 2.278 6.436 2.278 2.756 0 4.901-.966 6.436-2.897Zm-1.857-3.712c-.676.445-1.534.668-2.574.668-.792 0-1.444-.231-1.955-.693-.512-.479-.768-1.098-.768-1.857 0-2.607 1.452-3.91 4.357-3.91h2.426v4.282c-.297.56-.792 1.064-1.486 1.51Zm39.358-7.08c0 4.159-.94 7.484-2.822 9.976-1.865 2.475-4.39 3.713-7.574 3.713-2.46 0-4.48-.9-6.065-2.698v12.5h-8.342V9.258h7.797l.248 2.475c1.6-1.98 3.705-2.97 6.312-2.97 3.3 0 5.867 1.22 7.698 3.663 1.832 2.426 2.748 5.768 2.748 10.025v.396Zm-8.342-.52c0-4.752-1.386-7.129-4.158-7.129-1.98 0-3.3.71-3.96 2.13v10.544c.725 1.485 2.062 2.228 4.01 2.228 2.656 0 4.026-2.294 4.108-6.882v-.89ZM96.34 36.536c3.004 0 5.388-1.13 7.154-3.392l.247 2.897h7.822V9.258h-8.391v18.787c-.808 1.37-2.17 2.055-4.084 2.055-2.228 0-3.342-1.147-3.342-3.44V9.257h-8.342V26.61c0 3.201.751 5.66 2.253 7.376 1.518 1.7 3.746 2.55 6.683 2.55Zm33.838-8.02c0-.71-.372-1.28-1.114-1.708-.743-.43-2.154-.875-4.233-1.337-2.079-.462-3.795-1.064-5.149-1.807-1.353-.76-2.384-1.675-3.094-2.748-.709-1.072-1.064-2.302-1.064-3.688 0-2.459 1.015-4.48 3.045-6.064 1.704-1.344 3.851-2.124 6.439-2.34V2.741h3.976v6.163c2.421.294 4.445 1.047 6.07 2.26 2.145 1.6 3.218 3.704 3.218 6.312h-8.366c0-2.146-1.131-3.218-3.392-3.218-.874 0-1.609.247-2.203.742-.594.479-.891 1.081-.891 1.807 0 .743.363 1.345 1.089 1.807.726.462 1.882.842 3.466 1.139 1.6.297 3.003.652 4.208 1.064 4.026 1.387 6.04 3.87 6.04 7.451 0 2.442-1.09 4.43-3.268 5.966-1.626 1.154-3.616 1.874-5.971 2.16v6.108h-3.976v-6.03c-1.683-.146-3.219-.537-4.608-1.174-1.798-.825-3.201-1.947-4.208-3.366-1.006-1.42-1.51-2.913-1.51-4.48h7.798c.033 1.237.445 2.144 1.237 2.722.792.561 1.807.842 3.045.842 1.139 0 1.988-.231 2.549-.693.578-.463.867-1.065.867-1.807Zm21.684-19.258V2.599h-8.342v6.659h-3.416v5.792h3.416v13.292c0 2.756.685 4.81 2.054 6.164 1.37 1.353 3.49 2.03 6.362 2.03 1.634 0 3.201-.24 4.703-.718v-5.966c-.561.1-1.254.149-2.079.149-1.073 0-1.791-.198-2.154-.594-.363-.396-.544-1.098-.544-2.104V15.05h4.406V9.258h-4.406Zm22.797 26.783c-.297-.545-.561-1.345-.792-2.401-1.535 1.93-3.68 2.896-6.436 2.896-2.525 0-4.67-.76-6.436-2.278-1.765-1.534-2.648-3.457-2.648-5.767 0-2.904 1.073-5.1 3.218-6.584 2.145-1.486 5.264-2.228 9.356-2.228h2.575v-1.411c0-2.459-1.065-3.688-3.193-3.688-1.981 0-2.971.973-2.971 2.92h-8.342c0-2.59 1.098-4.694 3.293-6.312 2.211-1.617 5.025-2.425 8.44-2.425 3.416 0 6.114.833 8.095 2.5 1.98 1.666 2.995 3.952 3.044 6.856v11.857c.033 2.459.413 4.34 1.139 5.644v.42h-8.342Zm-5.223-5.446c1.04 0 1.898-.223 2.575-.668.693-.446 1.188-.95 1.485-1.51v-4.283h-2.426c-2.904 0-4.357 1.304-4.357 3.911 0 .76.256 1.378.768 1.857.511.462 1.163.693 1.955.693Z" clip-rule="evenodd"/><path fill="#52555F" d="M16.618 60.575c0-.36-.127-.635-.381-.825-.254-.195-.711-.398-1.371-.61-.66-.215-1.183-.427-1.568-.634-1.05-.567-1.574-1.331-1.574-2.292 0-.499.14-.943.419-1.333.283-.393.687-.7 1.212-.92.529-.22 1.121-.33 1.777-.33.66 0 1.249.12 1.765.362.516.237.916.573 1.2 1.009.287.436.431.93.431 1.485h-1.904c0-.423-.133-.75-.4-.984-.267-.237-.641-.355-1.123-.355-.466 0-.828.1-1.086.298a.923.923 0 0 0-.387.775c0 .3.15.552.45.755.305.203.752.394 1.34.571 1.083.326 1.873.73 2.368 1.213.495.482.742 1.083.742 1.803 0 .8-.302 1.428-.907 1.885-.605.453-1.42.679-2.444.679-.711 0-1.359-.13-1.943-.387-.584-.263-1.03-.62-1.339-1.073-.305-.453-.457-.977-.457-1.574h1.91c0 1.02.61 1.53 1.829 1.53.453 0 .806-.091 1.06-.273a.907.907 0 0 0 .38-.775Zm7.644-6.817 2.373 6.703 2.362-6.703h2.5V63h-1.91v-2.526l.19-4.361L27.284 63h-1.308l-2.488-6.88.19 4.354V63h-1.904v-9.242h2.489Zm16.181 7.338h-3.339L36.47 63h-2.025l3.44-9.242h1.766L43.109 63h-2.025l-.641-1.904Zm-2.825-1.543h2.31l-1.16-3.46-1.15 3.46Zm11.726.064h-1.517V63h-1.905v-9.242h3.434c1.092 0 1.934.243 2.527.73.592.486.888 1.174.888 2.063 0 .63-.137 1.157-.412 1.58-.271.42-.684.754-1.238 1.003l2 3.777V63h-2.044l-1.733-3.383Zm-1.517-1.543h1.536c.478 0 .848-.12 1.11-.362.263-.245.394-.582.394-1.009 0-.436-.125-.779-.374-1.028-.246-.25-.625-.375-1.137-.375h-1.53v2.774ZM62.815 55.3h-2.831V63h-1.905v-7.7h-2.793v-1.542h7.529V55.3Zm13.408 3.923h-3.656V63h-1.904v-9.242h6.017V55.3h-4.113v2.387h3.656v1.536ZM81.76 63h-1.904v-9.242h1.904V63Zm11.236 0h-1.904l-3.707-6.081V63h-1.904v-9.242h1.904l3.713 6.094v-6.094h1.898V63Zm8.946-1.904h-3.34L97.969 63h-2.025l3.44-9.242h1.765l3.46 9.242h-2.025l-.641-1.904Zm-2.825-1.543h2.31l-1.161-3.46-1.15 3.46ZM114.937 63h-1.905l-3.707-6.081V63h-1.904v-9.242h1.904l3.714 6.094v-6.094h1.898V63Zm10.868-3.079c-.072.995-.44 1.778-1.105 2.349-.66.571-1.531.857-2.615.857-1.185 0-2.118-.398-2.799-1.193-.677-.8-1.016-1.896-1.016-3.288v-.565c0-.89.157-1.672.47-2.35.313-.676.76-1.195 1.339-1.554.584-.364 1.261-.546 2.032-.546 1.066 0 1.925.285 2.577.857.651.571 1.028 1.373 1.13 2.406h-1.905c-.046-.597-.213-1.029-.501-1.295-.284-.271-.717-.407-1.301-.407-.635 0-1.111.229-1.429.686-.313.453-.474 1.157-.482 2.114v.698c0 .999.15 1.729.451 2.19.304.461.783.692 1.434.692.588 0 1.026-.134 1.314-.4.292-.271.459-.688.502-1.25h1.904Zm8.761-.926h-3.656v2.475h4.291V63h-6.196v-9.242h6.183V55.3h-4.278v2.203h3.656v1.492Z"/></svg>